<?xml version='1.0' encoding='UTF-8' standalone='no'?>
<!-- Created with Fritzing (http://www.fritzing.org/) -->
<svg width="0.14in" x="0in" version="1.2" y="0in" xmlns="http://www.w3.org/2000/svg" height="2.04in" viewBox="0 0 140 2040" baseProfile="tiny" xmlns:svg="http://www.w3.org/2000/svg">
 <g  id="copper0" stroke-width="0">
  <rect width="55" x="42.5" y="42.5" fill="none"  height="55" stroke="rgb(255, 191, 0)" stroke-width="20"/>
  <circle fill="none" cx="70"  cy="70" stroke="rgb(255, 191, 0)" id="connector0pin" r="27.5" stroke-width="20"/>
  <circle fill="none" cx="70"  cy="170" stroke="rgb(255, 191, 0)" id="connector1pin" r="27.5" stroke-width="20"/>
  <circle fill="none" cx="70"  cy="270" stroke="rgb(255, 191, 0)" id="connector2pin" r="27.5" stroke-width="20"/>
  <circle fill="none" cx="70"  cy="370" stroke="rgb(255, 191, 0)" id="connector3pin" r="27.5" stroke-width="20"/>
  <circle fill="none" cx="70"  cy="470" stroke="rgb(255, 191, 0)" id="connector4pin" r="27.5" stroke-width="20"/>
  <circle fill="none" cx="70"  cy="570" stroke="rgb(255, 191, 0)" id="connector5pin" r="27.5" stroke-width="20"/>
  <circle fill="none" cx="70"  cy="670" stroke="rgb(255, 191, 0)" id="connector6pin" r="27.5" stroke-width="20"/>
  <circle fill="none" cx="70"  cy="770" stroke="rgb(255, 191, 0)" id="connector7pin" r="27.5" stroke-width="20"/>
  <circle fill="none" cx="70"  cy="870" stroke="rgb(255, 191, 0)" id="connector8pin" r="27.5" stroke-width="20"/>
  <circle fill="none" cx="70"  cy="970" stroke="rgb(255, 191, 0)" id="connector9pin" r="27.5" stroke-width="20"/>
  <circle fill="none" cx="70"  cy="1070" stroke="rgb(255, 191, 0)" id="connector10pin" r="27.5" stroke-width="20"/>
  <circle fill="none" cx="70"  cy="1170" stroke="rgb(255, 191, 0)" id="connector11pin" r="27.5" stroke-width="20"/>
  <circle fill="none" cx="70"  cy="1270" stroke="rgb(255, 191, 0)" id="connector12pin" r="27.5" stroke-width="20"/>
  <circle fill="none" cx="70"  cy="1370" stroke="rgb(255, 191, 0)" id="connector13pin" r="27.5" stroke-width="20"/>
  <circle fill="none" cx="70"  cy="1470" stroke="rgb(255, 191, 0)" id="connector14pin" r="27.5" stroke-width="20"/>
  <circle fill="none" cx="70"  cy="1570" stroke="rgb(255, 191, 0)" id="connector15pin" r="27.5" stroke-width="20"/>
  <circle fill="none" cx="70"  cy="1670" stroke="rgb(255, 191, 0)" id="connector16pin" r="27.5" stroke-width="20"/>
  <circle fill="none" cx="70"  cy="1770" stroke="rgb(255, 191, 0)" id="connector17pin" r="27.5" stroke-width="20"/>
  <circle fill="none" cx="70"  cy="1870" stroke="rgb(255, 191, 0)" id="connector18pin" r="27.5" stroke-width="20"/>
  <circle fill="none" cx="70"  cy="1970" stroke="rgb(255, 191, 0)" id="connector19pin" r="27.5" stroke-width="20"/>
 </g>
 <g  id="copper1" stroke-width="0">
  <g  id="copper0" stroke-width="0">
   <rect width="55" x="42.5" y="42.5" fill="none"  height="55" stroke="rgb(255, 191, 0)" stroke-width="20"/>
   <circle fill="none" cx="70"  cy="70" stroke="rgb(255, 191, 0)" id="connector0pin" r="27.5" stroke-width="20"/>
   <circle fill="none" cx="70"  cy="170" stroke="rgb(255, 191, 0)" id="connector1pin" r="27.5" stroke-width="20"/>
   <circle fill="none" cx="70"  cy="270" stroke="rgb(255, 191, 0)" id="connector2pin" r="27.5" stroke-width="20"/>
   <circle fill="none" cx="70"  cy="370" stroke="rgb(255, 191, 0)" id="connector3pin" r="27.5" stroke-width="20"/>
   <circle fill="none" cx="70"  cy="470" stroke="rgb(255, 191, 0)" id="connector4pin" r="27.5" stroke-width="20"/>
   <circle fill="none" cx="70"  cy="570" stroke="rgb(255, 191, 0)" id="connector5pin" r="27.5" stroke-width="20"/>
   <circle fill="none" cx="70"  cy="670" stroke="rgb(255, 191, 0)" id="connector6pin" r="27.5" stroke-width="20"/>
   <circle fill="none" cx="70"  cy="770" stroke="rgb(255, 191, 0)" id="connector7pin" r="27.5" stroke-width="20"/>
   <circle fill="none" cx="70"  cy="870" stroke="rgb(255, 191, 0)" id="connector8pin" r="27.5" stroke-width="20"/>
   <circle fill="none" cx="70"  cy="970" stroke="rgb(255, 191, 0)" id="connector9pin" r="27.5" stroke-width="20"/>
   <circle fill="none" cx="70"  cy="1070" stroke="rgb(255, 191, 0)" id="connector10pin" r="27.5" stroke-width="20"/>
   <circle fill="none" cx="70"  cy="1170" stroke="rgb(255, 191, 0)" id="connector11pin" r="27.5" stroke-width="20"/>
   <circle fill="none" cx="70"  cy="1270" stroke="rgb(255, 191, 0)" id="connector12pin" r="27.5" stroke-width="20"/>
   <circle fill="none" cx="70"  cy="1370" stroke="rgb(255, 191, 0)" id="connector13pin" r="27.5" stroke-width="20"/>
   <circle fill="none" cx="70"  cy="1470" stroke="rgb(255, 191, 0)" id="connector14pin" r="27.5" stroke-width="20"/>
   <circle fill="none" cx="70"  cy="1570" stroke="rgb(255, 191, 0)" id="connector15pin" r="27.5" stroke-width="20"/>
   <circle fill="none" cx="70"  cy="1670" stroke="rgb(255, 191, 0)" id="connector16pin" r="27.5" stroke-width="20"/>
   <circle fill="none" cx="70"  cy="1770" stroke="rgb(255, 191, 0)" id="connector17pin" r="27.5" stroke-width="20"/>
   <circle fill="none" cx="70"  cy="1870" stroke="rgb(255, 191, 0)" id="connector18pin" r="27.5" stroke-width="20"/>
   <circle fill="none" cx="70"  cy="1970" stroke="rgb(255, 191, 0)" id="connector19pin" r="27.5" stroke-width="20"/>
  </g>
 </g>
 <g  id="silkscreen" stroke-width="0">
  <line  stroke="white" y1="20" stroke-width="10" x1="20" y2="2020" x2="20"/>
  <line  stroke="white" y1="2020" stroke-width="10" x1="20" y2="2020" x2="120"/>
  <line  stroke="white" y1="2020" stroke-width="10" x1="120" y2="20" x2="120"/>
  <line  stroke="white" y1="20" stroke-width="10" x1="120" y2="20" x2="20"/>
  <line  stroke="white" y1="120" stroke-width="5" x1="20" y2="120" x2="120"/>
 </g>
</svg>
