<?xml version='1.0' encoding='UTF-8' standalone='no'?>
<!-- Created with Fritzing (http://www.fritzing.org/) -->
<svg width="1.91111in" x="0in" version="1.2" y="0in" xmlns="http://www.w3.org/2000/svg" height="6.32222in" viewBox="0 0 1911.11 6322.22" baseProfile="tiny" xmlns:svg="http://www.w3.org/2000/svg">
 <g id="schematic">
  <rect width="1586" x="315" y="15" fill="none" height="6300" stroke="#000000" stroke-linejoin="round" stroke-linecap="round" stroke-width="30"/>
  <text x="1716" y="3165" fill="#000000" font-family="DroidSans" text-anchor="middle" stroke="none" id="label" font-size="235">NHD-2.7-12864UCY3</text>
  <line fill="none" stroke="#000000" stroke-linejoin="round" stroke-linecap="round" y1="315" stroke-width="30" x1="15" y2="315" x2="300"/>
  <rect width="300" x="0" y="300" fill="none" height="30" id="connector0pin" stroke-width="0"/>
  <rect width="30" x="0" y="300" fill="none" height="30" id="connector0terminal" stroke-width="0"/>
  <text x="390" y="350" font-family="DroidSans" fill="#000000" text-anchor="start" stroke="none" id="label0" font-size="130">GND</text>
  <line fill="none" stroke="#000000" stroke-linejoin="round" stroke-linecap="round" y1="615" stroke-width="30" x1="15" y2="615" x2="300"/>
  <rect width="300" x="0" y="600" fill="none" height="30" id="connector1pin" stroke-width="0"/>
  <rect width="30" x="0" y="600" fill="none" height="30" id="connector1terminal" stroke-width="0"/>
  <text x="390" y="650" font-family="DroidSans" fill="#000000" text-anchor="start" stroke="none" id="label1" font-size="130">VDD</text>
  <line fill="none" stroke="#000000" stroke-linejoin="round" stroke-linecap="round" y1="915" stroke-width="30" x1="15" y2="915" x2="300"/>
  <rect width="300" x="0" y="900" fill="none" height="30" id="connector2pin" stroke-width="0"/>
  <rect width="30" x="0" y="900" fill="none" height="30" id="connector2terminal" stroke-width="0"/>
  <text x="390" y="950" font-family="DroidSans" fill="#000000" text-anchor="start" stroke="none" id="label2" font-size="130">NC</text>
  <line fill="none" stroke="#000000" stroke-linejoin="round" stroke-linecap="round" y1="1215" stroke-width="30" x1="15" y2="1215" x2="300"/>
  <rect width="300" x="0" y="1200" fill="none" height="30" id="connector3pin" stroke-width="0"/>
  <rect width="30" x="0" y="1200" fill="none" height="30" id="connector3terminal" stroke-width="0"/>
  <text x="390" y="1250" font-family="DroidSans" fill="#000000" text-anchor="start" stroke="none" id="label3" font-size="130">D/C</text>
  <line fill="none" stroke="#000000" stroke-linejoin="round" stroke-linecap="round" y1="1515" stroke-width="30" x1="15" y2="1515" x2="300"/>
  <rect width="300" x="0" y="1500" fill="none" height="30" id="connector4pin" stroke-width="0"/>
  <rect width="30" x="0" y="1500" fill="none" height="30" id="connector4terminal" stroke-width="0"/>
  <text x="390" y="1550" font-family="DroidSans" fill="#000000" text-anchor="start" stroke="none" id="label4" font-size="130">R/W</text>
  <line fill="none" stroke="#000000" stroke-linejoin="round" stroke-linecap="round" y1="1815" stroke-width="30" x1="15" y2="1815" x2="300"/>
  <rect width="300" x="0" y="1800" fill="none" height="30" id="connector5pin" stroke-width="0"/>
  <rect width="30" x="0" y="1800" fill="none" height="30" id="connector5terminal" stroke-width="0"/>
  <text x="390" y="1850" font-family="DroidSans" fill="#000000" text-anchor="start" stroke="none" id="label5" font-size="130">E</text>
  <line fill="none" stroke="#000000" stroke-linejoin="round" stroke-linecap="round" y1="2115" stroke-width="30" x1="15" y2="2115" x2="300"/>
  <rect width="300" x="0" y="2100" fill="none" height="30" id="connector6pin" stroke-width="0"/>
  <rect width="30" x="0" y="2100" fill="none" height="30" id="connector6terminal" stroke-width="0"/>
  <text x="390" y="2150" font-family="DroidSans" fill="#000000" text-anchor="start" stroke="none" id="label6" font-size="130">DB0</text>
  <line fill="none" stroke="#000000" stroke-linejoin="round" stroke-linecap="round" y1="2415" stroke-width="30" x1="15" y2="2415" x2="300"/>
  <rect width="300" x="0" y="2400" fill="none" height="30" id="connector7pin" stroke-width="0"/>
  <rect width="30" x="0" y="2400" fill="none" height="30" id="connector7terminal" stroke-width="0"/>
  <text x="390" y="2450" font-family="DroidSans" fill="#000000" text-anchor="start" stroke="none" id="label7" font-size="130">DB1</text>
  <line fill="none" stroke="#000000" stroke-linejoin="round" stroke-linecap="round" y1="2715" stroke-width="30" x1="15" y2="2715" x2="300"/>
  <rect width="300" x="0" y="2700" fill="none" height="30" id="connector8pin" stroke-width="0"/>
  <rect width="30" x="0" y="2700" fill="none" height="30" id="connector8terminal" stroke-width="0"/>
  <text x="390" y="2750" font-family="DroidSans" fill="#000000" text-anchor="start" stroke="none" id="label8" font-size="130">DB2</text>
  <line fill="none" stroke="#000000" stroke-linejoin="round" stroke-linecap="round" y1="3015" stroke-width="30" x1="15" y2="3015" x2="300"/>
  <rect width="300" x="0" y="3000" fill="none" height="30" id="connector9pin" stroke-width="0"/>
  <rect width="30" x="0" y="3000" fill="none" height="30" id="connector9terminal" stroke-width="0"/>
  <text x="390" y="3050" font-family="DroidSans" fill="#000000" text-anchor="start" stroke="none" id="label9" font-size="130">DB3</text>
  <line fill="none" stroke="#000000" stroke-linejoin="round" stroke-linecap="round" y1="3315" stroke-width="30" x1="15" y2="3315" x2="300"/>
  <rect width="300" x="0" y="3300" fill="none" height="30" id="connector10pin" stroke-width="0"/>
  <rect width="30" x="0" y="3300" fill="none" height="30" id="connector10terminal" stroke-width="0"/>
  <text x="390" y="3350" font-family="DroidSans" fill="#000000" text-anchor="start" stroke="none" id="label10" font-size="130">DB4</text>
  <line fill="none" stroke="#000000" stroke-linejoin="round" stroke-linecap="round" y1="3615" stroke-width="30" x1="15" y2="3615" x2="300"/>
  <rect width="300" x="0" y="3600" fill="none" height="30" id="connector11pin" stroke-width="0"/>
  <rect width="30" x="0" y="3600" fill="none" height="30" id="connector11terminal" stroke-width="0"/>
  <text x="390" y="3650" font-family="DroidSans" fill="#000000" text-anchor="start" stroke="none" id="label11" font-size="130">DB5</text>
  <line fill="none" stroke="#000000" stroke-linejoin="round" stroke-linecap="round" y1="3915" stroke-width="30" x1="15" y2="3915" x2="300"/>
  <rect width="300" x="0" y="3900" fill="none" height="30" id="connector12pin" stroke-width="0"/>
  <rect width="30" x="0" y="3900" fill="none" height="30" id="connector12terminal" stroke-width="0"/>
  <text x="390" y="3950" font-family="DroidSans" fill="#000000" text-anchor="start" stroke="none" id="label12" font-size="130">DB6</text>
  <line fill="none" stroke="#000000" stroke-linejoin="round" stroke-linecap="round" y1="4215" stroke-width="30" x1="15" y2="4215" x2="300"/>
  <rect width="300" x="0" y="4200" fill="none" height="30" id="connector13pin" stroke-width="0"/>
  <rect width="30" x="0" y="4200" fill="none" height="30" id="connector13terminal" stroke-width="0"/>
  <text x="390" y="4250" font-family="DroidSans" fill="#000000" text-anchor="start" stroke="none" id="label13" font-size="130">DB7</text>
  <line fill="none" stroke="#000000" stroke-linejoin="round" stroke-linecap="round" y1="4515" stroke-width="30" x1="15" y2="4515" x2="300"/>
  <rect width="300" x="0" y="4500" fill="none" height="30" id="connector14pin" stroke-width="0"/>
  <rect width="30" x="0" y="4500" fill="none" height="30" id="connector14terminal" stroke-width="0"/>
  <text x="390" y="4550" font-family="DroidSans" fill="#000000" text-anchor="start" stroke="none" id="label14" font-size="130">NC</text>
  <line fill="none" stroke="#000000" stroke-linejoin="round" stroke-linecap="round" y1="4815" stroke-width="30" x1="15" y2="4815" x2="300"/>
  <rect width="300" x="0" y="4800" fill="none" height="30" id="connector15pin" stroke-width="0"/>
  <rect width="30" x="0" y="4800" fill="none" height="30" id="connector15terminal" stroke-width="0"/>
  <text x="390" y="4850" font-family="DroidSans" fill="#000000" text-anchor="start" stroke="none" id="label15" font-size="130">/RES</text>
  <line fill="none" stroke="#000000" stroke-linejoin="round" stroke-linecap="round" y1="5115" stroke-width="30" x1="15" y2="5115" x2="300"/>
  <rect width="300" x="0" y="5100" fill="none" height="30" id="connector16pin" stroke-width="0"/>
  <rect width="30" x="0" y="5100" fill="none" height="30" id="connector16terminal" stroke-width="0"/>
  <text x="390" y="5150" font-family="DroidSans" fill="#000000" text-anchor="start" stroke="none" id="label16" font-size="130">/CS</text>
  <line fill="none" stroke="#000000" stroke-linejoin="round" stroke-linecap="round" y1="5415" stroke-width="30" x1="15" y2="5415" x2="300"/>
  <rect width="300" x="0" y="5400" fill="none" height="30" id="connector17pin" stroke-width="0"/>
  <rect width="30" x="0" y="5400" fill="none" height="30" id="connector17terminal" stroke-width="0"/>
  <text x="390" y="5450" font-family="DroidSans" fill="#000000" text-anchor="start" stroke="none" id="label17" font-size="130">NC</text>
  <line fill="none" stroke="#000000" stroke-linejoin="round" stroke-linecap="round" y1="5715" stroke-width="30" x1="15" y2="5715" x2="300"/>
  <rect width="300" x="0" y="5700" fill="none" height="30" id="connector18pin" stroke-width="0"/>
  <rect width="30" x="0" y="5700" fill="none" height="30" id="connector18terminal" stroke-width="0"/>
  <text x="390" y="5750" font-family="DroidSans" fill="#000000" text-anchor="start" stroke="none" id="label18" font-size="130">BS2</text>
  <line fill="none" stroke="#000000" stroke-linejoin="round" stroke-linecap="round" y1="6015" stroke-width="30" x1="15" y2="6015" x2="300"/>
  <rect width="300" x="0" y="6000" fill="none" height="30" id="connector19pin" stroke-width="0"/>
  <rect width="30" x="0" y="6000" fill="none" height="30" id="connector19terminal" stroke-width="0"/>
  <text x="390" y="6050" font-family="DroidSans" fill="#000000" text-anchor="start" stroke="none" id="label19" font-size="130">BS1</text>
 </g>
</svg>
