<svg xmlns="http://www.w3.org/2000/svg" xmlns:svg="http://www.w3.org/2000/svg" width="183.467" height="606.933" x="0" y="0" baseProfile="tiny" version="1.2" viewBox="0 0 1911.11 6322.22"><g id="schematic"><rect width="1586" height="6300" x="315" y="15" fill="none" stroke="#000" stroke-linecap="round" stroke-linejoin="round" stroke-width="30"/><text id="label" x="1716" y="3165" fill="#000" stroke="none" font-family="DroidSans" font-size="235" text-anchor="middle">NHD-2.7-12864UCY3</text><line x1="15" x2="300" y1="315" y2="315" fill="none" stroke="#000" stroke-linecap="round" stroke-linejoin="round" stroke-width="30"/><rect id="connector0pin" width="300" height="30" x="0" y="300" fill="none" stroke-width="0"/><rect id="connector0terminal" width="30" height="30" x="0" y="300" fill="none" stroke-width="0"/><text id="label0" x="390" y="350" fill="#000" stroke="none" font-family="DroidSans" font-size="130" text-anchor="start">GND</text><line x1="15" x2="300" y1="615" y2="615" fill="none" stroke="#000" stroke-linecap="round" stroke-linejoin="round" stroke-width="30"/><rect id="connector1pin" width="300" height="30" x="0" y="600" fill="none" stroke-width="0"/><rect id="connector1terminal" width="30" height="30" x="0" y="600" fill="none" stroke-width="0"/><text id="label1" x="390" y="650" fill="#000" stroke="none" font-family="DroidSans" font-size="130" text-anchor="start">VDD</text><line x1="15" x2="300" y1="915" y2="915" fill="none" stroke="#000" stroke-linecap="round" stroke-linejoin="round" stroke-width="30"/><rect id="connector2pin" width="300" height="30" x="0" y="900" fill="none" stroke-width="0"/><rect id="connector2terminal" width="30" height="30" x="0" y="900" fill="none" stroke-width="0"/><text id="label2" x="390" y="950" fill="#000" stroke="none" font-family="DroidSans" font-size="130" text-anchor="start">NC</text><line x1="15" x2="300" y1="1215" y2="1215" fill="none" stroke="#000" stroke-linecap="round" stroke-linejoin="round" stroke-width="30"/><rect id="connector3pin" width="300" height="30" x="0" y="1200" fill="none" stroke-width="0"/><rect id="connector3terminal" width="30" height="30" x="0" y="1200" fill="none" stroke-width="0"/><text id="label3" x="390" y="1250" fill="#000" stroke="none" font-family="DroidSans" font-size="130" text-anchor="start">D/C</text><line x1="15" x2="300" y1="1515" y2="1515" fill="none" stroke="#000" stroke-linecap="round" stroke-linejoin="round" stroke-width="30"/><rect id="connector4pin" width="300" height="30" x="0" y="1500" fill="none" stroke-width="0"/><rect id="connector4terminal" width="30" height="30" x="0" y="1500" fill="none" stroke-width="0"/><text id="label4" x="390" y="1550" fill="#000" stroke="none" font-family="DroidSans" font-size="130" text-anchor="start">R/W</text><line x1="15" x2="300" y1="1815" y2="1815" fill="none" stroke="#000" stroke-linecap="round" stroke-linejoin="round" stroke-width="30"/><rect id="connector5pin" width="300" height="30" x="0" y="1800" fill="none" stroke-width="0"/><rect id="connector5terminal" width="30" height="30" x="0" y="1800" fill="none" stroke-width="0"/><text id="label5" x="390" y="1850" fill="#000" stroke="none" font-family="DroidSans" font-size="130" text-anchor="start">E</text><line x1="15" x2="300" y1="2115" y2="2115" fill="none" stroke="#000" stroke-linecap="round" stroke-linejoin="round" stroke-width="30"/><rect id="connector6pin" width="300" height="30" x="0" y="2100" fill="none" stroke-width="0"/><rect id="connector6terminal" width="30" height="30" x="0" y="2100" fill="none" stroke-width="0"/><text id="label6" x="390" y="2150" fill="#000" stroke="none" font-family="DroidSans" font-size="130" text-anchor="start">DB0</text><line x1="15" x2="300" y1="2415" y2="2415" fill="none" stroke="#000" stroke-linecap="round" stroke-linejoin="round" stroke-width="30"/><rect id="connector7pin" width="300" height="30" x="0" y="2400" fill="none" stroke-width="0"/><rect id="connector7terminal" width="30" height="30" x="0" y="2400" fill="none" stroke-width="0"/><text id="label7" x="390" y="2450" fill="#000" stroke="none" font-family="DroidSans" font-size="130" text-anchor="start">DB1</text><line x1="15" x2="300" y1="2715" y2="2715" fill="none" stroke="#000" stroke-linecap="round" stroke-linejoin="round" stroke-width="30"/><rect id="connector8pin" width="300" height="30" x="0" y="2700" fill="none" stroke-width="0"/><rect id="connector8terminal" width="30" height="30" x="0" y="2700" fill="none" stroke-width="0"/><text id="label8" x="390" y="2750" fill="#000" stroke="none" font-family="DroidSans" font-size="130" text-anchor="start">DB2</text><line x1="15" x2="300" y1="3015" y2="3015" fill="none" stroke="#000" stroke-linecap="round" stroke-linejoin="round" stroke-width="30"/><rect id="connector9pin" width="300" height="30" x="0" y="3000" fill="none" stroke-width="0"/><rect id="connector9terminal" width="30" height="30" x="0" y="3000" fill="none" stroke-width="0"/><text id="label9" x="390" y="3050" fill="#000" stroke="none" font-family="DroidSans" font-size="130" text-anchor="start">DB3</text><line x1="15" x2="300" y1="3315" y2="3315" fill="none" stroke="#000" stroke-linecap="round" stroke-linejoin="round" stroke-width="30"/><rect id="connector10pin" width="300" height="30" x="0" y="3300" fill="none" stroke-width="0"/><rect id="connector10terminal" width="30" height="30" x="0" y="3300" fill="none" stroke-width="0"/><text id="label10" x="390" y="3350" fill="#000" stroke="none" font-family="DroidSans" font-size="130" text-anchor="start">DB4</text><line x1="15" x2="300" y1="3615" y2="3615" fill="none" stroke="#000" stroke-linecap="round" stroke-linejoin="round" stroke-width="30"/><rect id="connector11pin" width="300" height="30" x="0" y="3600" fill="none" stroke-width="0"/><rect id="connector11terminal" width="30" height="30" x="0" y="3600" fill="none" stroke-width="0"/><text id="label11" x="390" y="3650" fill="#000" stroke="none" font-family="DroidSans" font-size="130" text-anchor="start">DB5</text><line x1="15" x2="300" y1="3915" y2="3915" fill="none" stroke="#000" stroke-linecap="round" stroke-linejoin="round" stroke-width="30"/><rect id="connector12pin" width="300" height="30" x="0" y="3900" fill="none" stroke-width="0"/><rect id="connector12terminal" width="30" height="30" x="0" y="3900" fill="none" stroke-width="0"/><text id="label12" x="390" y="3950" fill="#000" stroke="none" font-family="DroidSans" font-size="130" text-anchor="start">DB6</text><line x1="15" x2="300" y1="4215" y2="4215" fill="none" stroke="#000" stroke-linecap="round" stroke-linejoin="round" stroke-width="30"/><rect id="connector13pin" width="300" height="30" x="0" y="4200" fill="none" stroke-width="0"/><rect id="connector13terminal" width="30" height="30" x="0" y="4200" fill="none" stroke-width="0"/><text id="label13" x="390" y="4250" fill="#000" stroke="none" font-family="DroidSans" font-size="130" text-anchor="start">DB7</text><line x1="15" x2="300" y1="4515" y2="4515" fill="none" stroke="#000" stroke-linecap="round" stroke-linejoin="round" stroke-width="30"/><rect id="connector14pin" width="300" height="30" x="0" y="4500" fill="none" stroke-width="0"/><rect id="connector14terminal" width="30" height="30" x="0" y="4500" fill="none" stroke-width="0"/><text id="label14" x="390" y="4550" fill="#000" stroke="none" font-family="DroidSans" font-size="130" text-anchor="start">NC</text><line x1="15" x2="300" y1="4815" y2="4815" fill="none" stroke="#000" stroke-linecap="round" stroke-linejoin="round" stroke-width="30"/><rect id="connector15pin" width="300" height="30" x="0" y="4800" fill="none" stroke-width="0"/><rect id="connector15terminal" width="30" height="30" x="0" y="4800" fill="none" stroke-width="0"/><text id="label15" x="390" y="4850" fill="#000" stroke="none" font-family="DroidSans" font-size="130" text-anchor="start">/RES</text><line x1="15" x2="300" y1="5115" y2="5115" fill="none" stroke="#000" stroke-linecap="round" stroke-linejoin="round" stroke-width="30"/><rect id="connector16pin" width="300" height="30" x="0" y="5100" fill="none" stroke-width="0"/><rect id="connector16terminal" width="30" height="30" x="0" y="5100" fill="none" stroke-width="0"/><text id="label16" x="390" y="5150" fill="#000" stroke="none" font-family="DroidSans" font-size="130" text-anchor="start">/CS</text><line x1="15" x2="300" y1="5415" y2="5415" fill="none" stroke="#000" stroke-linecap="round" stroke-linejoin="round" stroke-width="30"/><rect id="connector17pin" width="300" height="30" x="0" y="5400" fill="none" stroke-width="0"/><rect id="connector17terminal" width="30" height="30" x="0" y="5400" fill="none" stroke-width="0"/><text id="label17" x="390" y="5450" fill="#000" stroke="none" font-family="DroidSans" font-size="130" text-anchor="start">NC</text><line x1="15" x2="300" y1="5715" y2="5715" fill="none" stroke="#000" stroke-linecap="round" stroke-linejoin="round" stroke-width="30"/><rect id="connector18pin" width="300" height="30" x="0" y="5700" fill="none" stroke-width="0"/><rect id="connector18terminal" width="30" height="30" x="0" y="5700" fill="none" stroke-width="0"/><text id="label18" x="390" y="5750" fill="#000" stroke="none" font-family="DroidSans" font-size="130" text-anchor="start">BS2</text><line x1="15" x2="300" y1="6015" y2="6015" fill="none" stroke="#000" stroke-linecap="round" stroke-linejoin="round" stroke-width="30"/><rect id="connector19pin" width="300" height="30" x="0" y="6000" fill="none" stroke-width="0"/><rect id="connector19terminal" width="30" height="30" x="0" y="6000" fill="none" stroke-width="0"/><text id="label19" x="390" y="6050" fill="#000" stroke="none" font-family="DroidSans" font-size="130" text-anchor="start">BS1</text></g></svg>