<?xml version="1.0" encoding="UTF-8" standalone="no"?>
<!-- Created by diasvg.py -->
<svg width="42.212cm" height="31.075cm" viewBox="12.813 1.975 55.025 33.050"
 xmlns="http://www.w3.org/2000/svg"
 xmlns:xlink="http://www.w3.org/1999/xlink">
<rect x="15.000" y="12.000" width="28.000" height="12.000" fill="#FFFFFF" stroke="none" stroke-width="0"/>
<rect x="15.000" y="12.000" width="28.000" height="12.000" fill="none" stroke="#000000" stroke-width="0.050" />
<line x1="28.000" y1="27.000" x2="28.800" y2="27.000" stroke="#000000" stroke-width="0.100" />
<line x1="28.800" y1="26.000" x2="28.800" y2="28.000" stroke="#000000" stroke-width="0.100" />
<line x1="29.200" y1="26.000" x2="29.200" y2="28.000" stroke="#000000" stroke-width="0.100" />
<line x1="29.200" y1="27.000" x2="30.000" y2="27.000" stroke="#000000" stroke-width="0.100" />
<line x1="16.000" y1="11.000" x2="16.000" y2="12.000" stroke="#000000" stroke-width="0.100" />
<line x1="18.000" y1="11.000" x2="18.000" y2="12.000" stroke="#000000" stroke-width="0.100" />
<line x1="20.000" y1="11.000" x2="20.000" y2="12.000" stroke="#000000" stroke-width="0.100" />
<line x1="22.000" y1="11.000" x2="22.000" y2="12.000" stroke="#000000" stroke-width="0.100" />
<line x1="24.000" y1="11.000" x2="24.000" y2="12.000" stroke="#000000" stroke-width="0.100" />
<line x1="26.000" y1="11.000" x2="26.000" y2="12.000" stroke="#000000" stroke-width="0.100" />
<line x1="28.000" y1="11.000" x2="28.000" y2="12.000" stroke="#000000" stroke-width="0.100" />
<line x1="30.000" y1="11.000" x2="30.000" y2="12.000" stroke="#000000" stroke-width="0.100" />
<line x1="32.000" y1="11.000" x2="32.000" y2="12.000" stroke="#000000" stroke-width="0.100" />
<line x1="34.000" y1="11.000" x2="34.000" y2="12.000" stroke="#000000" stroke-width="0.100" />
<line x1="36.000" y1="11.000" x2="36.000" y2="12.000" stroke="#000000" stroke-width="0.100" />
<line x1="38.000" y1="11.000" x2="38.000" y2="12.000" stroke="#000000" stroke-width="0.100" />
<line x1="40.000" y1="11.000" x2="40.000" y2="12.000" stroke="#000000" stroke-width="0.100" />
<line x1="42.000" y1="11.000" x2="42.000" y2="12.000" stroke="#000000" stroke-width="0.100" />
<line x1="16.000" y1="24.000" x2="16.000" y2="25.000" stroke="#000000" stroke-width="0.100" />
<line x1="18.000" y1="24.000" x2="18.000" y2="25.000" stroke="#000000" stroke-width="0.100" />
<line x1="20.000" y1="24.000" x2="20.000" y2="25.000" stroke="#000000" stroke-width="0.100" />
<line x1="22.000" y1="24.000" x2="22.000" y2="25.000" stroke="#000000" stroke-width="0.100" />
<line x1="24.000" y1="24.000" x2="24.000" y2="25.000" stroke="#000000" stroke-width="0.100" />
<line x1="26.000" y1="24.000" x2="26.000" y2="25.000" stroke="#000000" stroke-width="0.100" />
<line x1="28.000" y1="24.000" x2="28.000" y2="25.000" stroke="#000000" stroke-width="0.100" />
<line x1="30.000" y1="24.000" x2="30.000" y2="25.000" stroke="#000000" stroke-width="0.100" />
<line x1="32.000" y1="24.000" x2="32.000" y2="25.000" stroke="#000000" stroke-width="0.100" />
<line x1="34.000" y1="24.000" x2="34.000" y2="25.000" stroke="#000000" stroke-width="0.100" />
<line x1="36.000" y1="24.000" x2="36.000" y2="25.000" stroke="#000000" stroke-width="0.100" />
<line x1="38.000" y1="24.000" x2="38.000" y2="25.000" stroke="#000000" stroke-width="0.100" />
<line x1="40.000" y1="24.000" x2="40.000" y2="25.000" stroke="#000000" stroke-width="0.100" />
<line x1="42.000" y1="24.000" x2="42.000" y2="25.000" stroke="#000000" stroke-width="0.100" />
<path stroke="#000000" fill="none" stroke-width="0.050"  d ="M 43.000,17.000 A 1.000,1.000 0 1,0 43.000,19.000 "/>
<text x="16.000" y="22.821"  fill="#000000" text-anchor="middle" font-size="0.80" font-family="sans" font-style="normal" font-weight="400">
RXD</text>
<text x="16.000" y="23.621"  fill="#000000" text-anchor="middle" font-size="0.80" font-family="sans" font-style="normal" font-weight="400">
15</text>
<text x="18.000" y="22.821"  fill="#000000" text-anchor="middle" font-size="0.80" font-family="sans" font-style="normal" font-weight="400">
TXD</text>
<text x="18.000" y="23.621"  fill="#000000" text-anchor="middle" font-size="0.80" font-family="sans" font-style="normal" font-weight="400">
16</text>
<text x="28.000" y="22.821"  fill="#000000" text-anchor="middle" font-size="0.80" font-family="sans" font-style="normal" font-weight="400">
3.3V</text>
<text x="28.000" y="23.621"  fill="#000000" text-anchor="middle" font-size="0.80" font-family="sans" font-style="normal" font-weight="400">
21</text>
<text x="30.000" y="22.821"  fill="#000000" text-anchor="middle" font-size="0.80" font-family="sans" font-style="normal" font-weight="400">
GND</text>
<text x="30.000" y="23.621"  fill="#000000" text-anchor="middle" font-size="0.80" font-family="sans" font-style="normal" font-weight="400">
22</text>
<text x="32.000" y="22.821"  fill="#000000" text-anchor="middle" font-size="0.80" font-family="sans" font-style="normal" font-weight="400">
RST</text>
<text x="32.000" y="23.621"  fill="#000000" text-anchor="middle" font-size="0.80" font-family="sans" font-style="normal" font-weight="400">
23</text>
<text x="34.000" y="22.821"  fill="#000000" text-anchor="middle" font-size="0.80" font-family="sans" font-style="normal" font-weight="400">
PIO0_1</text>
<text x="34.000" y="23.621"  fill="#000000" text-anchor="middle" font-size="0.80" font-family="sans" font-style="normal" font-weight="400">
24</text>
<line x1="34.000" y1="29.000" x2="40.000" y2="29.000" stroke="#000000" stroke-width="0.100" />
<rect x="35.000" y="29.000" width="4.000" height="4.000" fill="#FFFFFF" stroke="none" stroke-width="0"/>
<rect x="35.000" y="29.000" width="4.000" height="4.000" fill="none" stroke="#000000" stroke-width="0.050" />
<line x1="37.000" y1="30.000" x2="37.000" y2="30.600" stroke="#000000" stroke-width="0.100" />
<polyline fill="none" stroke="#000000" stroke-width="0.100"  points="37.000,32.000 37.000,31.400 37.400,30.600 "/>
<line x1="34.000" y1="33.000" x2="40.000" y2="33.000" stroke="#000000" stroke-width="0.100" />
<line x1="37.000" y1="29.000" x2="37.000" y2="30.000" stroke="#000000" stroke-width="0.100" />
<line x1="37.000" y1="32.000" x2="37.000" y2="33.000" stroke="#000000" stroke-width="0.100" />
<line x1="26.000" y1="29.000" x2="32.000" y2="29.000" stroke="#000000" stroke-width="0.100" />
<rect x="27.000" y="29.000" width="4.000" height="4.000" fill="#FFFFFF" stroke="none" stroke-width="0"/>
<rect x="27.000" y="29.000" width="4.000" height="4.000" fill="none" stroke="#000000" stroke-width="0.050" />
<line x1="29.000" y1="30.000" x2="29.000" y2="30.600" stroke="#000000" stroke-width="0.100" />
<polyline fill="none" stroke="#000000" stroke-width="0.100"  points="29.000,32.000 29.000,31.400 29.400,30.600 "/>
<line x1="26.000" y1="33.000" x2="32.000" y2="33.000" stroke="#000000" stroke-width="0.100" />
<line x1="29.000" y1="29.000" x2="29.000" y2="30.000" stroke="#000000" stroke-width="0.100" />
<line x1="29.000" y1="32.000" x2="29.000" y2="33.000" stroke="#000000" stroke-width="0.100" />
<line x1="28.000" y1="25.000" x2="28.000" y2="27.000" stroke="#1E90FF" stroke-width="0.100" />
<line x1="30.000" y1="25.000" x2="30.000" y2="27.000" stroke="#1E90FF" stroke-width="0.100" />
<line x1="32.000" y1="25.000" x2="32.000" y2="29.000" stroke="#1E90FF" stroke-width="0.100" />
<line x1="34.000" y1="25.000" x2="34.000" y2="29.000" stroke="#1E90FF" stroke-width="0.100" />
<line x1="34.000" y1="33.000" x2="32.000" y2="33.000" stroke="#1E90FF" stroke-width="0.100" />
<line x1="46.000" y1="11.000" x2="46.000" y2="12.000" stroke="#000000" stroke-width="0.100" />
<line x1="48.000" y1="11.000" x2="48.000" y2="12.000" stroke="#000000" stroke-width="0.100" />
<line x1="50.000" y1="11.000" x2="50.000" y2="12.000" stroke="#000000" stroke-width="0.100" />
<line x1="52.000" y1="11.000" x2="52.000" y2="12.000" stroke="#000000" stroke-width="0.100" />
<line x1="54.000" y1="11.000" x2="54.000" y2="12.000" stroke="#000000" stroke-width="0.100" />
<rect x="45.000" y="12.000" width="10.000" height="10.000" fill="#FFFFFF" stroke="none" stroke-width="0"/>
<rect x="45.000" y="12.000" width="10.000" height="10.000" fill="none" stroke="#000000" stroke-width="0.050" />
<rect x="54.000" y="15.000" width="1.000" height="4.000" fill="#FFFFFF" stroke="none" stroke-width="0"/>
<rect x="54.000" y="15.000" width="1.000" height="4.000" fill="none" stroke="#000000" stroke-width="0.050" />
<line x1="46.000" y1="22.000" x2="46.000" y2="23.000" stroke="#000000" stroke-width="0.100" />
<line x1="48.000" y1="22.000" x2="48.000" y2="23.000" stroke="#000000" stroke-width="0.100" />
<line x1="50.000" y1="22.000" x2="50.000" y2="23.000" stroke="#000000" stroke-width="0.100" />
<line x1="52.000" y1="22.000" x2="52.000" y2="23.000" stroke="#000000" stroke-width="0.100" />
<line x1="54.000" y1="22.000" x2="54.000" y2="23.000" stroke="#000000" stroke-width="0.100" />
<text x="48.000" y="20.821"  fill="#000000" text-anchor="middle" font-size="0.80" font-family="sans" font-style="normal" font-weight="400">
TXD</text>
<text x="48.000" y="21.621"  fill="#000000" text-anchor="middle" font-size="0.80" font-family="sans" font-style="normal" font-weight="400">
P7</text>
<text x="52.000" y="20.821"  fill="#000000" text-anchor="middle" font-size="0.80" font-family="sans" font-style="normal" font-weight="400">
RXD</text>
<text x="52.000" y="21.621"  fill="#000000" text-anchor="middle" font-size="0.80" font-family="sans" font-style="normal" font-weight="400">
P9</text>
<path stroke="#FFA500" fill="none" stroke-width="0.100"  d="M 18.000,25.000 C 18.000,26.000 33.969,25.750 35.000,25.750 C 38.000,25.750 52.000,24.000 52.000,23.000 "/>
<path stroke="#FFA500" fill="none" stroke-width="0.100"  d="M 16.000,25.000 C 16.000,26.000 17.167,27.500 20.000,28.000 C 22.833,28.500 42.211,27.894 44.000,27.000 C 46.000,26.000 48.000,25.000 48.000,23.000 "/>
<text x="26.850" y="27.221"  fill="#000000" text-anchor="middle" font-size="0.80" font-family="sans" font-style="normal" font-weight="400">
100nF</text>
<text x="25.000" y="31.221"  fill="#000000" text-anchor="middle" font-size="0.80" font-family="sans" font-style="normal" font-weight="400">
Reset</text>
<text x="41.000" y="30.821"  fill="#000000" text-anchor="middle" font-size="0.80" font-family="sans" font-style="normal" font-weight="400">
ISP</text>
<text x="41.000" y="31.621"  fill="#000000" text-anchor="middle" font-size="0.80" font-family="sans" font-style="normal" font-weight="400">
Mode</text>
<text x="48.000" y="12.821"  fill="#000000" text-anchor="middle" font-size="0.80" font-family="sans" font-style="normal" font-weight="400">
P4</text>
<text x="48.000" y="13.621"  fill="#000000" text-anchor="middle" font-size="0.80" font-family="sans" font-style="normal" font-weight="400">
GND</text>
<text x="52.000" y="12.821"  fill="#000000" text-anchor="middle" font-size="0.80" font-family="sans" font-style="normal" font-weight="400">
P2</text>
<text x="52.000" y="13.621"  fill="#000000" text-anchor="middle" font-size="0.80" font-family="sans" font-style="normal" font-weight="400">
3.3V</text>
<text x="50.000" y="17.391"  fill="#000000" text-anchor="middle" font-size="1.41" font-family="sans" font-style="normal" font-weight="400">
UMFT234XF</text>
<text x="40.000" y="12.821"  fill="#000000" text-anchor="middle" font-size="0.80" font-family="sans" font-style="normal" font-weight="400">
2</text>
<text x="40.000" y="13.621"  fill="#000000" text-anchor="middle" font-size="0.80" font-family="sans" font-style="normal" font-weight="400">
MOSI</text>
<text x="38.000" y="12.821"  fill="#000000" text-anchor="middle" font-size="0.80" font-family="sans" font-style="normal" font-weight="400">
3</text>
<text x="38.000" y="13.621"  fill="#000000" text-anchor="middle" font-size="0.80" font-family="sans" font-style="normal" font-weight="400">
SCK</text>
<text x="22.000" y="12.821"  fill="#000000" text-anchor="middle" font-size="0.80" font-family="sans" font-style="normal" font-weight="400">
11</text>
<text x="22.000" y="13.621"  fill="#000000" text-anchor="middle" font-size="0.80" font-family="sans" font-style="normal" font-weight="400">
CS</text>
<text x="24.000" y="12.821"  fill="#000000" text-anchor="middle" font-size="0.80" font-family="sans" font-style="normal" font-weight="400">
10</text>
<text x="24.000" y="13.621"  fill="#000000" text-anchor="middle" font-size="0.80" font-family="sans" font-style="normal" font-weight="400">
A0</text>
<text x="26.000" y="12.821"  fill="#000000" text-anchor="middle" font-size="0.80" font-family="sans" font-style="normal" font-weight="400">
9</text>
<text x="26.000" y="13.621"  fill="#000000" text-anchor="middle" font-size="0.80" font-family="sans" font-style="normal" font-weight="400">
LcdRst</text>
<path stroke="#7F7F7F" fill="none" stroke-width="0.100"  d="M 30.000,27.000 C 32.000,28.000 41.000,27.000 43.000,26.000 C 45.000,25.000 43.000,11.000 44.000,10.000 C 45.581,8.419 47.975,8.965 48.000,11.000 "/>
<path stroke="#7F7F7F" fill="none" stroke-width="0.100"  d="M 40.000,33.000 C 41.000,33.000 41.000,33.000 42.000,32.000 C 43.000,31.000 42.958,28.048 43.000,26.000 "/>
<line x1="16.000" y1="4.000" x2="16.000" y2="5.000" stroke="#000000" stroke-width="0.100" />
<line x1="18.000" y1="4.000" x2="18.000" y2="5.000" stroke="#000000" stroke-width="0.100" />
<line x1="20.000" y1="4.000" x2="20.000" y2="5.000" stroke="#000000" stroke-width="0.100" />
<line x1="22.000" y1="4.000" x2="22.000" y2="5.000" stroke="#000000" stroke-width="0.100" />
<line x1="24.000" y1="4.000" x2="24.000" y2="5.000" stroke="#000000" stroke-width="0.100" />
<line x1="26.000" y1="4.000" x2="26.000" y2="5.000" stroke="#000000" stroke-width="0.100" />
<line x1="28.000" y1="4.000" x2="28.000" y2="5.000" stroke="#000000" stroke-width="0.100" />
<rect x="15.000" y="2.000" width="14.000" height="2.140" fill="#FFFFFF" stroke="none" stroke-width="0"/>
<rect x="15.000" y="2.000" width="14.000" height="2.140" fill="none" stroke="#000000" stroke-width="0.050" />
<text x="26.000" y="3.221"  fill="#000000" text-anchor="middle" font-size="0.80" font-family="sans" font-style="normal" font-weight="400">
CS</text>
<text x="28.000" y="3.221"  fill="#000000" text-anchor="middle" font-size="0.80" font-family="sans" font-style="normal" font-weight="400">
LcdRst</text>
<text x="24.000" y="3.221"  fill="#000000" text-anchor="middle" font-size="0.80" font-family="sans" font-style="normal" font-weight="400">
SCK</text>
<text x="22.000" y="3.291"  fill="#000000" text-anchor="middle" font-size="0.80" font-family="sans" font-style="normal" font-weight="400">
SDA</text>
<text x="20.000" y="3.221"  fill="#000000" text-anchor="middle" font-size="0.80" font-family="sans" font-style="normal" font-weight="400">
A0</text>
<text x="18.000" y="3.221"  fill="#000000" text-anchor="middle" font-size="0.80" font-family="sans" font-style="normal" font-weight="400">
3.3V</text>
<text x="16.000" y="3.221"  fill="#000000" text-anchor="middle" font-size="0.80" font-family="sans" font-style="normal" font-weight="400">
GND</text>
<path stroke="#FFA500" fill="none" stroke-width="0.100"  d="M 22.000,5.000 C 22.000,6.000 22.000,6.000 23.000,6.000 C 24.000,6.000 38.109,5.980 39.000,7.000 C 39.975,8.115 39.975,9.115 40.000,11.000 "/>
<path stroke="#FFA500" fill="none" stroke-width="0.100"  d="M 24.000,5.000 C 24.000,6.000 24.000,7.000 25.000,7.000 C 26.000,7.000 36.109,6.980 37.000,8.000 C 37.975,9.115 38.000,10.000 38.000,11.000 "/>
<path stroke="#00FF00" fill="none" stroke-width="0.100"  d="M 20.000,5.000 C 20.000,6.000 20.000,7.000 21.000,8.000 C 22.000,9.000 22.000,8.000 23.000,9.000 C 24.047,10.047 24.000,10.000 24.000,11.000 "/>
<text x="29.000" y="18.391"  fill="#000000" text-anchor="middle" font-size="1.41" font-family="sans" font-style="normal" font-weight="400">
LPC1114FN28</text>
<path stroke="#0000FF" fill="none" stroke-width="0.100"  d="M 26.000,5.000 C 26.000,6.000 26.000,5.000 26.000,6.000 C 26.000,7.000 26.000,6.000 26.000,7.000 C 26.000,8.481 22.000,10.000 22.000,11.000 "/>
<path stroke="#4D4D4D" fill="none" stroke-width="0.100"  d="M 28.000,5.000 C 28.000,6.000 28.000,5.000 28.000,6.000 C 28.000,7.000 28.000,6.000 28.000,7.000 C 28.000,8.481 26.000,10.000 26.000,11.000 "/>
<path stroke="#7F7F7F" fill="none" stroke-width="0.100"  d="M 16.000,5.000 C 16.000,7.000 17.000,8.000 19.000,9.000 C 21.000,10.000 42.586,9.000 44.000,9.000 C 46.000,9.000 47.975,8.965 48.000,11.000 "/>
<path stroke="#FF0000" fill="none" stroke-width="0.100"  d="M 18.000,5.000 C 18.000,7.000 18.000,7.000 20.000,8.000 C 22.000,9.000 46.586,8.050 48.000,8.050 C 50.000,8.050 51.975,8.965 52.000,11.000 "/>
<path stroke="#FF0000" fill="none" stroke-width="0.100"  d="M 18.000,5.000 C 18.000,7.000 15.000,8.000 14.025,9.616 C 13.051,11.232 12.000,23.000 14.000,25.000 C 16.000,27.000 27.000,27.000 28.000,27.000 "/>
</svg>