<svg xmlns="http://www.w3.org/2000/svg" xmlns:xlink="http://www.w3.org/1999/xlink" width="42.212cm" height="31.075cm" viewBox="12.813 1.975 55.025 33.05"><rect width="28" height="12" x="15" y="12" fill="#FFF" stroke="none" stroke-width="0"/><rect width="28" height="12" x="15" y="12" fill="none" stroke="#000" stroke-width=".05"/><line x1="28" x2="28.8" y1="27" y2="27" stroke="#000" stroke-width=".1"/><line x1="28.8" x2="28.8" y1="26" y2="28" stroke="#000" stroke-width=".1"/><line x1="29.2" x2="29.2" y1="26" y2="28" stroke="#000" stroke-width=".1"/><line x1="29.2" x2="30" y1="27" y2="27" stroke="#000" stroke-width=".1"/><line x1="16" x2="16" y1="11" y2="12" stroke="#000" stroke-width=".1"/><line x1="18" x2="18" y1="11" y2="12" stroke="#000" stroke-width=".1"/><line x1="20" x2="20" y1="11" y2="12" stroke="#000" stroke-width=".1"/><line x1="22" x2="22" y1="11" y2="12" stroke="#000" stroke-width=".1"/><line x1="24" x2="24" y1="11" y2="12" stroke="#000" stroke-width=".1"/><line x1="26" x2="26" y1="11" y2="12" stroke="#000" stroke-width=".1"/><line x1="28" x2="28" y1="11" y2="12" stroke="#000" stroke-width=".1"/><line x1="30" x2="30" y1="11" y2="12" stroke="#000" stroke-width=".1"/><line x1="32" x2="32" y1="11" y2="12" stroke="#000" stroke-width=".1"/><line x1="34" x2="34" y1="11" y2="12" stroke="#000" stroke-width=".1"/><line x1="36" x2="36" y1="11" y2="12" stroke="#000" stroke-width=".1"/><line x1="38" x2="38" y1="11" y2="12" stroke="#000" stroke-width=".1"/><line x1="40" x2="40" y1="11" y2="12" stroke="#000" stroke-width=".1"/><line x1="42" x2="42" y1="11" y2="12" stroke="#000" stroke-width=".1"/><line x1="16" x2="16" y1="24" y2="25" stroke="#000" stroke-width=".1"/><line x1="18" x2="18" y1="24" y2="25" stroke="#000" stroke-width=".1"/><line x1="20" x2="20" y1="24" y2="25" stroke="#000" stroke-width=".1"/><line x1="22" x2="22" y1="24" y2="25" stroke="#000" stroke-width=".1"/><line x1="24" x2="24" y1="24" y2="25" stroke="#000" stroke-width=".1"/><line x1="26" x2="26" y1="24" y2="25" stroke="#000" stroke-width=".1"/><line x1="28" x2="28" y1="24" y2="25" stroke="#000" stroke-width=".1"/><line x1="30" x2="30" y1="24" y2="25" stroke="#000" stroke-width=".1"/><line x1="32" x2="32" y1="24" y2="25" stroke="#000" stroke-width=".1"/><line x1="34" x2="34" y1="24" y2="25" stroke="#000" stroke-width=".1"/><line x1="36" x2="36" y1="24" y2="25" stroke="#000" stroke-width=".1"/><line x1="38" x2="38" y1="24" y2="25" stroke="#000" stroke-width=".1"/><line x1="40" x2="40" y1="24" y2="25" stroke="#000" stroke-width=".1"/><line x1="42" x2="42" y1="24" y2="25" stroke="#000" stroke-width=".1"/><path fill="none" stroke="#000" stroke-width=".05" d="M 43.000,17.000 A 1.000,1.000 0 1,0 43.000,19.000"/><text x="16" y="22.821" fill="#000" font-family="sans" font-size=".8" font-style="normal" font-weight="400" text-anchor="middle">RXD</text><text x="16" y="23.621" fill="#000" font-family="sans" font-size=".8" font-style="normal" font-weight="400" text-anchor="middle">15</text><text x="18" y="22.821" fill="#000" font-family="sans" font-size=".8" font-style="normal" font-weight="400" text-anchor="middle">TXD</text><text x="18" y="23.621" fill="#000" font-family="sans" font-size=".8" font-style="normal" font-weight="400" text-anchor="middle">16</text><text x="28" y="22.821" fill="#000" font-family="sans" font-size=".8" font-style="normal" font-weight="400" text-anchor="middle">3.3V</text><text x="28" y="23.621" fill="#000" font-family="sans" font-size=".8" font-style="normal" font-weight="400" text-anchor="middle">21</text><text x="30" y="22.821" fill="#000" font-family="sans" font-size=".8" font-style="normal" font-weight="400" text-anchor="middle">GND</text><text x="30" y="23.621" fill="#000" font-family="sans" font-size=".8" font-style="normal" font-weight="400" text-anchor="middle">22</text><text x="32" y="22.821" fill="#000" font-family="sans" font-size=".8" font-style="normal" font-weight="400" text-anchor="middle">RST</text><text x="32" y="23.621" fill="#000" font-family="sans" font-size=".8" font-style="normal" font-weight="400" text-anchor="middle">23</text><text x="34" y="22.821" fill="#000" font-family="sans" font-size=".8" font-style="normal" font-weight="400" text-anchor="middle">PIO0_1</text><text x="34" y="23.621" fill="#000" font-family="sans" font-size=".8" font-style="normal" font-weight="400" text-anchor="middle">24</text><line x1="34" x2="40" y1="29" y2="29" stroke="#000" stroke-width=".1"/><rect width="4" height="4" x="35" y="29" fill="#FFF" stroke="none" stroke-width="0"/><rect width="4" height="4" x="35" y="29" fill="none" stroke="#000" stroke-width=".05"/><line x1="37" x2="37" y1="30" y2="30.6" stroke="#000" stroke-width=".1"/><polyline fill="none" stroke="#000" stroke-width=".1" points="37 32 37 31.4 37.4 30.6"/><line x1="34" x2="40" y1="33" y2="33" stroke="#000" stroke-width=".1"/><line x1="37" x2="37" y1="29" y2="30" stroke="#000" stroke-width=".1"/><line x1="37" x2="37" y1="32" y2="33" stroke="#000" stroke-width=".1"/><line x1="26" x2="32" y1="29" y2="29" stroke="#000" stroke-width=".1"/><rect width="4" height="4" x="27" y="29" fill="#FFF" stroke="none" stroke-width="0"/><rect width="4" height="4" x="27" y="29" fill="none" stroke="#000" stroke-width=".05"/><line x1="29" x2="29" y1="30" y2="30.6" stroke="#000" stroke-width=".1"/><polyline fill="none" stroke="#000" stroke-width=".1" points="29 32 29 31.4 29.4 30.6"/><line x1="26" x2="32" y1="33" y2="33" stroke="#000" stroke-width=".1"/><line x1="29" x2="29" y1="29" y2="30" stroke="#000" stroke-width=".1"/><line x1="29" x2="29" y1="32" y2="33" stroke="#000" stroke-width=".1"/><line x1="28" x2="28" y1="25" y2="27" stroke="#1E90FF" stroke-width=".1"/><line x1="30" x2="30" y1="25" y2="27" stroke="#1E90FF" stroke-width=".1"/><line x1="32" x2="32" y1="25" y2="29" stroke="#1E90FF" stroke-width=".1"/><line x1="34" x2="34" y1="25" y2="29" stroke="#1E90FF" stroke-width=".1"/><line x1="34" x2="32" y1="33" y2="33" stroke="#1E90FF" stroke-width=".1"/><line x1="46" x2="46" y1="11" y2="12" stroke="#000" stroke-width=".1"/><line x1="48" x2="48" y1="11" y2="12" stroke="#000" stroke-width=".1"/><line x1="50" x2="50" y1="11" y2="12" stroke="#000" stroke-width=".1"/><line x1="52" x2="52" y1="11" y2="12" stroke="#000" stroke-width=".1"/><line x1="54" x2="54" y1="11" y2="12" stroke="#000" stroke-width=".1"/><rect width="10" height="10" x="45" y="12" fill="#FFF" stroke="none" stroke-width="0"/><rect width="10" height="10" x="45" y="12" fill="none" stroke="#000" stroke-width=".05"/><rect width="1" height="4" x="54" y="15" fill="#FFF" stroke="none" stroke-width="0"/><rect width="1" height="4" x="54" y="15" fill="none" stroke="#000" stroke-width=".05"/><line x1="46" x2="46" y1="22" y2="23" stroke="#000" stroke-width=".1"/><line x1="48" x2="48" y1="22" y2="23" stroke="#000" stroke-width=".1"/><line x1="50" x2="50" y1="22" y2="23" stroke="#000" stroke-width=".1"/><line x1="52" x2="52" y1="22" y2="23" stroke="#000" stroke-width=".1"/><line x1="54" x2="54" y1="22" y2="23" stroke="#000" stroke-width=".1"/><text x="48" y="20.821" fill="#000" font-family="sans" font-size=".8" font-style="normal" font-weight="400" text-anchor="middle">TXD</text><text x="48" y="21.621" fill="#000" font-family="sans" font-size=".8" font-style="normal" font-weight="400" text-anchor="middle">P7</text><text x="52" y="20.821" fill="#000" font-family="sans" font-size=".8" font-style="normal" font-weight="400" text-anchor="middle">RXD</text><text x="52" y="21.621" fill="#000" font-family="sans" font-size=".8" font-style="normal" font-weight="400" text-anchor="middle">P9</text><path fill="none" stroke="orange" stroke-width=".1" d="M 18.000,25.000 C 18.000,26.000 33.969,25.750 35.000,25.750 C 38.000,25.750 52.000,24.000 52.000,23.000"/><path fill="none" stroke="orange" stroke-width=".1" d="M 16.000,25.000 C 16.000,26.000 17.167,27.500 20.000,28.000 C 22.833,28.500 42.211,27.894 44.000,27.000 C 46.000,26.000 48.000,25.000 48.000,23.000"/><text x="26.85" y="27.221" fill="#000" font-family="sans" font-size=".8" font-style="normal" font-weight="400" text-anchor="middle">100nF</text><text x="25" y="31.221" fill="#000" font-family="sans" font-size=".8" font-style="normal" font-weight="400" text-anchor="middle">Reset</text><text x="41" y="30.821" fill="#000" font-family="sans" font-size=".8" font-style="normal" font-weight="400" text-anchor="middle">ISP</text><text x="41" y="31.621" fill="#000" font-family="sans" font-size=".8" font-style="normal" font-weight="400" text-anchor="middle">Mode</text><text x="48" y="12.821" fill="#000" font-family="sans" font-size=".8" font-style="normal" font-weight="400" text-anchor="middle">P4</text><text x="48" y="13.621" fill="#000" font-family="sans" font-size=".8" font-style="normal" font-weight="400" text-anchor="middle">GND</text><text x="52" y="12.821" fill="#000" font-family="sans" font-size=".8" font-style="normal" font-weight="400" text-anchor="middle">P2</text><text x="52" y="13.621" fill="#000" font-family="sans" font-size=".8" font-style="normal" font-weight="400" text-anchor="middle">3.3V</text><text x="50" y="17.391" fill="#000" font-family="sans" font-size="1.41" font-style="normal" font-weight="400" text-anchor="middle">UMFT234XF</text><text x="40" y="12.821" fill="#000" font-family="sans" font-size=".8" font-style="normal" font-weight="400" text-anchor="middle">2</text><text x="40" y="13.621" fill="#000" font-family="sans" font-size=".8" font-style="normal" font-weight="400" text-anchor="middle">MOSI</text><text x="38" y="12.821" fill="#000" font-family="sans" font-size=".8" font-style="normal" font-weight="400" text-anchor="middle">3</text><text x="38" y="13.621" fill="#000" font-family="sans" font-size=".8" font-style="normal" font-weight="400" text-anchor="middle">SCK</text><text x="22" y="12.821" fill="#000" font-family="sans" font-size=".8" font-style="normal" font-weight="400" text-anchor="middle">11</text><text x="22" y="13.621" fill="#000" font-family="sans" font-size=".8" font-style="normal" font-weight="400" text-anchor="middle">CS</text><text x="24" y="12.821" fill="#000" font-family="sans" font-size=".8" font-style="normal" font-weight="400" text-anchor="middle">10</text><text x="24" y="13.621" fill="#000" font-family="sans" font-size=".8" font-style="normal" font-weight="400" text-anchor="middle">A0</text><text x="26" y="12.821" fill="#000" font-family="sans" font-size=".8" font-style="normal" font-weight="400" text-anchor="middle">9</text><text x="26" y="13.621" fill="#000" font-family="sans" font-size=".8" font-style="normal" font-weight="400" text-anchor="middle">LcdRst</text><path fill="none" stroke="#7F7F7F" stroke-width=".1" d="M 30.000,27.000 C 32.000,28.000 41.000,27.000 43.000,26.000 C 45.000,25.000 43.000,11.000 44.000,10.000 C 45.581,8.419 47.975,8.965 48.000,11.000"/><path fill="none" stroke="#7F7F7F" stroke-width=".1" d="M 40.000,33.000 C 41.000,33.000 41.000,33.000 42.000,32.000 C 43.000,31.000 42.958,28.048 43.000,26.000"/><line x1="16" x2="16" y1="4" y2="5" stroke="#000" stroke-width=".1"/><line x1="18" x2="18" y1="4" y2="5" stroke="#000" stroke-width=".1"/><line x1="20" x2="20" y1="4" y2="5" stroke="#000" stroke-width=".1"/><line x1="22" x2="22" y1="4" y2="5" stroke="#000" stroke-width=".1"/><line x1="24" x2="24" y1="4" y2="5" stroke="#000" stroke-width=".1"/><line x1="26" x2="26" y1="4" y2="5" stroke="#000" stroke-width=".1"/><line x1="28" x2="28" y1="4" y2="5" stroke="#000" stroke-width=".1"/><rect width="14" height="2.14" x="15" y="2" fill="#FFF" stroke="none" stroke-width="0"/><rect width="14" height="2.14" x="15" y="2" fill="none" stroke="#000" stroke-width=".05"/><text x="26" y="3.221" fill="#000" font-family="sans" font-size=".8" font-style="normal" font-weight="400" text-anchor="middle">CS</text><text x="28" y="3.221" fill="#000" font-family="sans" font-size=".8" font-style="normal" font-weight="400" text-anchor="middle">LcdRst</text><text x="24" y="3.221" fill="#000" font-family="sans" font-size=".8" font-style="normal" font-weight="400" text-anchor="middle">SCK</text><text x="22" y="3.291" fill="#000" font-family="sans" font-size=".8" font-style="normal" font-weight="400" text-anchor="middle">SDA</text><text x="20" y="3.221" fill="#000" font-family="sans" font-size=".8" font-style="normal" font-weight="400" text-anchor="middle">A0</text><text x="18" y="3.221" fill="#000" font-family="sans" font-size=".8" font-style="normal" font-weight="400" text-anchor="middle">3.3V</text><text x="16" y="3.221" fill="#000" font-family="sans" font-size=".8" font-style="normal" font-weight="400" text-anchor="middle">GND</text><path fill="none" stroke="orange" stroke-width=".1" d="M 22.000,5.000 C 22.000,6.000 22.000,6.000 23.000,6.000 C 24.000,6.000 38.109,5.980 39.000,7.000 C 39.975,8.115 39.975,9.115 40.000,11.000"/><path fill="none" stroke="orange" stroke-width=".1" d="M 24.000,5.000 C 24.000,6.000 24.000,7.000 25.000,7.000 C 26.000,7.000 36.109,6.980 37.000,8.000 C 37.975,9.115 38.000,10.000 38.000,11.000"/><path fill="none" stroke="#0F0" stroke-width=".1" d="M 20.000,5.000 C 20.000,6.000 20.000,7.000 21.000,8.000 C 22.000,9.000 22.000,8.000 23.000,9.000 C 24.047,10.047 24.000,10.000 24.000,11.000"/><text x="29" y="18.391" fill="#000" font-family="sans" font-size="1.41" font-style="normal" font-weight="400" text-anchor="middle">LPC1114FN28</text><path fill="none" stroke="#00F" stroke-width=".1" d="M 26.000,5.000 C 26.000,6.000 26.000,5.000 26.000,6.000 C 26.000,7.000 26.000,6.000 26.000,7.000 C 26.000,8.481 22.000,10.000 22.000,11.000"/><path fill="none" stroke="#4D4D4D" stroke-width=".1" d="M 28.000,5.000 C 28.000,6.000 28.000,5.000 28.000,6.000 C 28.000,7.000 28.000,6.000 28.000,7.000 C 28.000,8.481 26.000,10.000 26.000,11.000"/><path fill="none" stroke="#7F7F7F" stroke-width=".1" d="M 16.000,5.000 C 16.000,7.000 17.000,8.000 19.000,9.000 C 21.000,10.000 42.586,9.000 44.000,9.000 C 46.000,9.000 47.975,8.965 48.000,11.000"/><path fill="none" stroke="red" stroke-width=".1" d="M 18.000,5.000 C 18.000,7.000 18.000,7.000 20.000,8.000 C 22.000,9.000 46.586,8.050 48.000,8.050 C 50.000,8.050 51.975,8.965 52.000,11.000"/><path fill="none" stroke="red" stroke-width=".1" d="M 18.000,5.000 C 18.000,7.000 15.000,8.000 14.025,9.616 C 13.051,11.232 12.000,23.000 14.000,25.000 C 16.000,27.000 27.000,27.000 28.000,27.000"/></svg>