  0
SECTION
  2
HEADER
  9
$EXTMIN
 10
12.812757
 20
-33.050000
  9
$EXTMAX
 10
55.025000
 20
-1.975000
  0
ENDSEC
0
SECTION
2
TABLES
0
TABLE
0
LAYER
2
Hintergrund
62
1
0
ENDTAB
0
ENDSEC
0
SECTION
2
ENTITIES
  0
SOLID
 62
7
 10
15.000000
 20
-24.000000
 11
15.000000
 21
-12.000000
 12
43.000000
 22
-24.000000
 13
43.000000
 23
-12.000000
  0
LINE
  8
Hintergrund
  6
CONTINUOUS
 10
15.000000
 20
-12.000000
 11
43.000000
 21
-12.000000
 39
0
 62
0
  0
LINE
  8
Hintergrund
  6
CONTINUOUS
 10
43.000000
 20
-12.000000
 11
43.000000
 21
-24.000000
 39
0
 62
0
  0
LINE
  8
Hintergrund
  6
CONTINUOUS
 10
43.000000
 20
-24.000000
 11
15.000000
 21
-24.000000
 39
0
 62
0
  0
LINE
  8
Hintergrund
  6
CONTINUOUS
 10
15.000000
 20
-24.000000
 11
15.000000
 21
-12.000000
 39
0
 62
0
  0
LINE
  8
Hintergrund
  6
CONTINUOUS
 10
28.000000
 20
-27.000000
 11
28.800000
 21
-27.000000
 39
0
 62
0
  0
LINE
  8
Hintergrund
  6
CONTINUOUS
 10
28.800000
 20
-26.000000
 11
28.800000
 21
-28.000000
 39
0
 62
0
  0
LINE
  8
Hintergrund
  6
CONTINUOUS
 10
29.200000
 20
-26.000000
 11
29.200000
 21
-28.000000
 39
0
 62
0
  0
LINE
  8
Hintergrund
  6
CONTINUOUS
 10
29.200000
 20
-27.000000
 11
30.000000
 21
-27.000000
 39
0
 62
0
  0
LINE
  8
Hintergrund
  6
CONTINUOUS
 10
16.000000
 20
-11.000000
 11
16.000000
 21
-12.000000
 39
0
 62
0
  0
LINE
  8
Hintergrund
  6
CONTINUOUS
 10
18.000000
 20
-11.000000
 11
18.000000
 21
-12.000000
 39
0
 62
0
  0
LINE
  8
Hintergrund
  6
CONTINUOUS
 10
20.000000
 20
-11.000000
 11
20.000000
 21
-12.000000
 39
0
 62
0
  0
LINE
  8
Hintergrund
  6
CONTINUOUS
 10
22.000000
 20
-11.000000
 11
22.000000
 21
-12.000000
 39
0
 62
0
  0
LINE
  8
Hintergrund
  6
CONTINUOUS
 10
24.000000
 20
-11.000000
 11
24.000000
 21
-12.000000
 39
0
 62
0
  0
LINE
  8
Hintergrund
  6
CONTINUOUS
 10
26.000000
 20
-11.000000
 11
26.000000
 21
-12.000000
 39
0
 62
0
  0
LINE
  8
Hintergrund
  6
CONTINUOUS
 10
28.000000
 20
-11.000000
 11
28.000000
 21
-12.000000
 39
0
 62
0
  0
LINE
  8
Hintergrund
  6
CONTINUOUS
 10
30.000000
 20
-11.000000
 11
30.000000
 21
-12.000000
 39
0
 62
0
  0
LINE
  8
Hintergrund
  6
CONTINUOUS
 10
32.000000
 20
-11.000000
 11
32.000000
 21
-12.000000
 39
0
 62
0
  0
LINE
  8
Hintergrund
  6
CONTINUOUS
 10
34.000000
 20
-11.000000
 11
34.000000
 21
-12.000000
 39
0
 62
0
  0
LINE
  8
Hintergrund
  6
CONTINUOUS
 10
36.000000
 20
-11.000000
 11
36.000000
 21
-12.000000
 39
0
 62
0
  0
LINE
  8
Hintergrund
  6
CONTINUOUS
 10
38.000000
 20
-11.000000
 11
38.000000
 21
-12.000000
 39
0
 62
0
  0
LINE
  8
Hintergrund
  6
CONTINUOUS
 10
40.000000
 20
-11.000000
 11
40.000000
 21
-12.000000
 39
0
 62
0
  0
LINE
  8
Hintergrund
  6
CONTINUOUS
 10
42.000000
 20
-11.000000
 11
42.000000
 21
-12.000000
 39
0
 62
0
  0
LINE
  8
Hintergrund
  6
CONTINUOUS
 10
16.000000
 20
-24.000000
 11
16.000000
 21
-25.000000
 39
0
 62
0
  0
LINE
  8
Hintergrund
  6
CONTINUOUS
 10
18.000000
 20
-24.000000
 11
18.000000
 21
-25.000000
 39
0
 62
0
  0
LINE
  8
Hintergrund
  6
CONTINUOUS
 10
20.000000
 20
-24.000000
 11
20.000000
 21
-25.000000
 39
0
 62
0
  0
LINE
  8
Hintergrund
  6
CONTINUOUS
 10
22.000000
 20
-24.000000
 11
22.000000
 21
-25.000000
 39
0
 62
0
  0
LINE
  8
Hintergrund
  6
CONTINUOUS
 10
24.000000
 20
-24.000000
 11
24.000000
 21
-25.000000
 39
0
 62
0
  0
LINE
  8
Hintergrund
  6
CONTINUOUS
 10
26.000000
 20
-24.000000
 11
26.000000
 21
-25.000000
 39
0
 62
0
  0
LINE
  8
Hintergrund
  6
CONTINUOUS
 10
28.000000
 20
-24.000000
 11
28.000000
 21
-25.000000
 39
0
 62
0
  0
LINE
  8
Hintergrund
  6
CONTINUOUS
 10
30.000000
 20
-24.000000
 11
30.000000
 21
-25.000000
 39
0
 62
0
  0
LINE
  8
Hintergrund
  6
CONTINUOUS
 10
32.000000
 20
-24.000000
 11
32.000000
 21
-25.000000
 39
0
 62
0
  0
LINE
  8
Hintergrund
  6
CONTINUOUS
 10
34.000000
 20
-24.000000
 11
34.000000
 21
-25.000000
 39
0
 62
0
  0
LINE
  8
Hintergrund
  6
CONTINUOUS
 10
36.000000
 20
-24.000000
 11
36.000000
 21
-25.000000
 39
0
 62
0
  0
LINE
  8
Hintergrund
  6
CONTINUOUS
 10
38.000000
 20
-24.000000
 11
38.000000
 21
-25.000000
 39
0
 62
0
  0
LINE
  8
Hintergrund
  6
CONTINUOUS
 10
40.000000
 20
-24.000000
 11
40.000000
 21
-25.000000
 39
0
 62
0
  0
LINE
  8
Hintergrund
  6
CONTINUOUS
 10
42.000000
 20
-24.000000
 11
42.000000
 21
-25.000000
 39
0
 62
0
  0
ARC
  8
Hintergrund
  6
CONTINUOUS
 10
43.000000
 20
-18.000000
 40
1.000000
 39
0
 50
1.570796
 51
4.712389
  0
TEXT
  8
Hintergrund
  6
CONTINUOUS
 10
16.000000
 20
-22.821250
 40
0.800000
 50
0.000000
 72
1
  7
0
  1
RXD
 39
0
 62
0
  0
TEXT
  8
Hintergrund
  6
CONTINUOUS
 10
16.000000
 20
-23.621250
 40
0.800000
 50
0.000000
 72
1
  7
0
  1
15
 39
0
 62
0
  0
TEXT
  8
Hintergrund
  6
CONTINUOUS
 10
18.000000
 20
-22.821250
 40
0.800000
 50
0.000000
 72
1
  7
0
  1
TXD
 39
0
 62
0
  0
TEXT
  8
Hintergrund
  6
CONTINUOUS
 10
18.000000
 20
-23.621250
 40
0.800000
 50
0.000000
 72
1
  7
0
  1
16
 39
0
 62
0
  0
TEXT
  8
Hintergrund
  6
CONTINUOUS
 10
28.000000
 20
-22.821250
 40
0.800000
 50
0.000000
 72
1
  7
0
  1
3.3V
 39
0
 62
0
  0
TEXT
  8
Hintergrund
  6
CONTINUOUS
 10
28.000000
 20
-23.621250
 40
0.800000
 50
0.000000
 72
1
  7
0
  1
21
 39
0
 62
0
  0
TEXT
  8
Hintergrund
  6
CONTINUOUS
 10
30.000000
 20
-22.821250
 40
0.800000
 50
0.000000
 72
1
  7
0
  1
GND
 39
0
 62
0
  0
TEXT
  8
Hintergrund
  6
CONTINUOUS
 10
30.000000
 20
-23.621250
 40
0.800000
 50
0.000000
 72
1
  7
0
  1
22
 39
0
 62
0
  0
TEXT
  8
Hintergrund
  6
CONTINUOUS
 10
30.000000
 20
-23.000000
 40
0.800000
 50
0.000000
 72
0
  7
0
  1

 39
0
 62
0
  0
TEXT
  8
Hintergrund
  6
CONTINUOUS
 10
32.000000
 20
-22.821250
 40
0.800000
 50
0.000000
 72
1
  7
0
  1
RST
 39
0
 62
0
  0
TEXT
  8
Hintergrund
  6
CONTINUOUS
 10
32.000000
 20
-23.621250
 40
0.800000
 50
0.000000
 72
1
  7
0
  1
23
 39
0
 62
0
  0
TEXT
  8
Hintergrund
  6
CONTINUOUS
 10
34.000000
 20
-22.821250
 40
0.800000
 50
0.000000
 72
1
  7
0
  1
PIO0_1
 39
0
 62
0
  0
TEXT
  8
Hintergrund
  6
CONTINUOUS
 10
34.000000
 20
-23.621250
 40
0.800000
 50
0.000000
 72
1
  7
0
  1
24
 39
0
 62
0
  0
LINE
  8
Hintergrund
  6
CONTINUOUS
 10
34.000000
 20
-29.000000
 11
40.000000
 21
-29.000000
 39
0
 62
0
  0
SOLID
 62
7
 10
35.000000
 20
-33.000000
 11
35.000000
 21
-29.000000
 12
39.000000
 22
-33.000000
 13
39.000000
 23
-29.000000
  0
LINE
  8
Hintergrund
  6
CONTINUOUS
 10
35.000000
 20
-29.000000
 11
39.000000
 21
-29.000000
 39
0
 62
0
  0
LINE
  8
Hintergrund
  6
CONTINUOUS
 10
39.000000
 20
-29.000000
 11
39.000000
 21
-33.000000
 39
0
 62
0
  0
LINE
  8
Hintergrund
  6
CONTINUOUS
 10
39.000000
 20
-33.000000
 11
35.000000
 21
-33.000000
 39
0
 62
0
  0
LINE
  8
Hintergrund
  6
CONTINUOUS
 10
35.000000
 20
-33.000000
 11
35.000000
 21
-29.000000
 39
0
 62
0
  0
LINE
  8
Hintergrund
  6
CONTINUOUS
 10
37.000000
 20
-30.000000
 11
37.000000
 21
-30.600000
 39
0
 62
0
  0
POLYLINE
  6
CONTINUOUS
  8
Hintergrund
 41
0.100000
 41
0.100000
 62
0
 66
1
  0
VERTEX
 10
37.000000
 20
-32.000000
  0
VERTEX
 10
37.000000
 20
-31.400000
  0
VERTEX
 10
37.400000
 20
-30.600000
  0
SEQEND
  0
TEXT
  8
Hintergrund
  6
CONTINUOUS
 10
35.900000
 20
-31.200000
 40
0.800000
 50
0.000000
 72
1
  7
0
  1

 39
1
 62
0
  0
LINE
  8
Hintergrund
  6
CONTINUOUS
 10
34.000000
 20
-33.000000
 11
40.000000
 21
-33.000000
 39
0
 62
0
  0
LINE
  8
Hintergrund
  6
CONTINUOUS
 10
37.000000
 20
-29.000000
 11
37.000000
 21
-30.000000
 39
0
 62
0
  0
LINE
  8
Hintergrund
  6
CONTINUOUS
 10
37.000000
 20
-32.000000
 11
37.000000
 21
-33.000000
 39
0
 62
0
  0
LINE
  8
Hintergrund
  6
CONTINUOUS
 10
26.000000
 20
-29.000000
 11
32.000000
 21
-29.000000
 39
0
 62
0
  0
SOLID
 62
7
 10
27.000000
 20
-33.000000
 11
27.000000
 21
-29.000000
 12
31.000000
 22
-33.000000
 13
31.000000
 23
-29.000000
  0
LINE
  8
Hintergrund
  6
CONTINUOUS
 10
27.000000
 20
-29.000000
 11
31.000000
 21
-29.000000
 39
0
 62
0
  0
LINE
  8
Hintergrund
  6
CONTINUOUS
 10
31.000000
 20
-29.000000
 11
31.000000
 21
-33.000000
 39
0
 62
0
  0
LINE
  8
Hintergrund
  6
CONTINUOUS
 10
31.000000
 20
-33.000000
 11
27.000000
 21
-33.000000
 39
0
 62
0
  0
LINE
  8
Hintergrund
  6
CONTINUOUS
 10
27.000000
 20
-33.000000
 11
27.000000
 21
-29.000000
 39
0
 62
0
  0
LINE
  8
Hintergrund
  6
CONTINUOUS
 10
29.000000
 20
-30.000000
 11
29.000000
 21
-30.600000
 39
0
 62
0
  0
POLYLINE
  6
CONTINUOUS
  8
Hintergrund
 41
0.100000
 41
0.100000
 62
0
 66
1
  0
VERTEX
 10
29.000000
 20
-32.000000
  0
VERTEX
 10
29.000000
 20
-31.400000
  0
VERTEX
 10
29.400000
 20
-30.600000
  0
SEQEND
  0
TEXT
  8
Hintergrund
  6
CONTINUOUS
 10
27.900000
 20
-31.200000
 40
0.800000
 50
0.000000
 72
1
  7
0
  1

 39
1
 62
0
  0
LINE
  8
Hintergrund
  6
CONTINUOUS
 10
26.000000
 20
-33.000000
 11
32.000000
 21
-33.000000
 39
0
 62
0
  0
LINE
  8
Hintergrund
  6
CONTINUOUS
 10
29.000000
 20
-29.000000
 11
29.000000
 21
-30.000000
 39
0
 62
0
  0
LINE
  8
Hintergrund
  6
CONTINUOUS
 10
29.000000
 20
-32.000000
 11
29.000000
 21
-33.000000
 39
0
 62
0
  0
LINE
  8
Hintergrund
  6
CONTINUOUS
 10
28.000000
 20
-25.000000
 11
28.000000
 21
-27.000000
 39
0
 62
150
  0
LINE
  8
Hintergrund
  6
CONTINUOUS
 10
30.000000
 20
-25.000000
 11
30.000000
 21
-27.000000
 39
0
 62
150
  0
LINE
  8
Hintergrund
  6
CONTINUOUS
 10
32.000000
 20
-25.000000
 11
32.000000
 21
-29.000000
 39
0
 62
150
  0
LINE
  8
Hintergrund
  6
CONTINUOUS
 10
34.000000
 20
-25.000000
 11
34.000000
 21
-29.000000
 39
0
 62
150
  0
LINE
  8
Hintergrund
  6
CONTINUOUS
 10
34.000000
 20
-33.000000
 11
32.000000
 21
-33.000000
 39
0
 62
150
  0
LINE
  8
Hintergrund
  6
CONTINUOUS
 10
46.000000
 20
-11.000000
 11
46.000000
 21
-12.000000
 39
0
 62
0
  0
LINE
  8
Hintergrund
  6
CONTINUOUS
 10
48.000000
 20
-11.000000
 11
48.000000
 21
-12.000000
 39
0
 62
0
  0
LINE
  8
Hintergrund
  6
CONTINUOUS
 10
50.000000
 20
-11.000000
 11
50.000000
 21
-12.000000
 39
0
 62
0
  0
LINE
  8
Hintergrund
  6
CONTINUOUS
 10
52.000000
 20
-11.000000
 11
52.000000
 21
-12.000000
 39
0
 62
0
  0
LINE
  8
Hintergrund
  6
CONTINUOUS
 10
54.000000
 20
-11.000000
 11
54.000000
 21
-12.000000
 39
0
 62
0
  0
SOLID
 62
7
 10
45.000000
 20
-22.000000
 11
45.000000
 21
-12.000000
 12
55.000000
 22
-22.000000
 13
55.000000
 23
-12.000000
  0
LINE
  8
Hintergrund
  6
CONTINUOUS
 10
45.000000
 20
-12.000000
 11
55.000000
 21
-12.000000
 39
0
 62
0
  0
LINE
  8
Hintergrund
  6
CONTINUOUS
 10
55.000000
 20
-12.000000
 11
55.000000
 21
-22.000000
 39
0
 62
0
  0
LINE
  8
Hintergrund
  6
CONTINUOUS
 10
55.000000
 20
-22.000000
 11
45.000000
 21
-22.000000
 39
0
 62
0
  0
LINE
  8
Hintergrund
  6
CONTINUOUS
 10
45.000000
 20
-22.000000
 11
45.000000
 21
-12.000000
 39
0
 62
0
  0
SOLID
 62
7
 10
54.000000
 20
-19.000000
 11
54.000000
 21
-15.000000
 12
55.000000
 22
-19.000000
 13
55.000000
 23
-15.000000
  0
LINE
  8
Hintergrund
  6
CONTINUOUS
 10
54.000000
 20
-15.000000
 11
55.000000
 21
-15.000000
 39
0
 62
0
  0
LINE
  8
Hintergrund
  6
CONTINUOUS
 10
55.000000
 20
-15.000000
 11
55.000000
 21
-19.000000
 39
0
 62
0
  0
LINE
  8
Hintergrund
  6
CONTINUOUS
 10
55.000000
 20
-19.000000
 11
54.000000
 21
-19.000000
 39
0
 62
0
  0
LINE
  8
Hintergrund
  6
CONTINUOUS
 10
54.000000
 20
-19.000000
 11
54.000000
 21
-15.000000
 39
0
 62
0
  0
LINE
  8
Hintergrund
  6
CONTINUOUS
 10
46.000000
 20
-22.000000
 11
46.000000
 21
-23.000000
 39
0
 62
0
  0
LINE
  8
Hintergrund
  6
CONTINUOUS
 10
48.000000
 20
-22.000000
 11
48.000000
 21
-23.000000
 39
0
 62
0
  0
LINE
  8
Hintergrund
  6
CONTINUOUS
 10
50.000000
 20
-22.000000
 11
50.000000
 21
-23.000000
 39
0
 62
0
  0
LINE
  8
Hintergrund
  6
CONTINUOUS
 10
52.000000
 20
-22.000000
 11
52.000000
 21
-23.000000
 39
0
 62
0
  0
LINE
  8
Hintergrund
  6
CONTINUOUS
 10
54.000000
 20
-22.000000
 11
54.000000
 21
-23.000000
 39
0
 62
0
  0
TEXT
  8
Hintergrund
  6
CONTINUOUS
 10
48.000000
 20
-20.821250
 40
0.800000
 50
0.000000
 72
1
  7
0
  1
TXD
 39
1
 62
0
  0
TEXT
  8
Hintergrund
  6
CONTINUOUS
 10
48.000000
 20
-21.621250
 40
0.800000
 50
0.000000
 72
1
  7
0
  1
P7
 39
1
 62
0
  0
TEXT
  8
Hintergrund
  6
CONTINUOUS
 10
52.000000
 20
-20.821250
 40
0.800000
 50
0.000000
 72
1
  7
0
  1
RXD
 39
1
 62
0
  0
TEXT
  8
Hintergrund
  6
CONTINUOUS
 10
52.000000
 20
-21.621250
 40
0.800000
 50
0.000000
 72
1
  7
0
  1
P9
 39
1
 62
0
  0
POLYLINE
  6
CONTINUOUS
  8
Hintergrund
 41
0.100000
 41
0.100000
 62
40
 66
1
  0
VERTEX
 10
18.000000
 20
-25.000000
  0
VERTEX
 10
18.011578
 20
-25.045965
  0
VERTEX
 10
18.045842
 20
-25.090134
  0
VERTEX
 10
18.179593
 20
-25.173218
  0
VERTEX
 10
18.395596
 20
-25.249527
  0
VERTEX
 10
18.688190
 20
-25.319336
  0
VERTEX
 10
19.051716
 20
-25.382919
  0
VERTEX
 10
19.480515
 20
-25.440552
  0
VERTEX
 10
20.511294
 20
-25.539062
  0
VERTEX
 10
21.735251
 20
-25.617065
  0
VERTEX
 10
23.107113
 20
-25.676758
  0
VERTEX
 10
24.581604
 20
-25.720337
  0
VERTEX
 10
26.113450
 20
-25.750000
  0
VERTEX
 10
29.168105
 20
-25.776367
  0
VERTEX
 10
31.908881
 20
-25.773438
  0
VERTEX
 10
35.000000
 20
-25.750000
  0
VERTEX
 10
35.685303
 20
-25.730103
  0
VERTEX
 10
36.591797
 20
-25.672852
  0
VERTEX
 10
37.682861
 20
-25.581909
  0
VERTEX
 10
38.921875
 20
-25.460938
  0
VERTEX
 10
41.697266
 20
-25.143555
  0
VERTEX
 10
43.160400
 20
-24.954468
  0
VERTEX
 10
44.625000
 20
-24.750000
  0
VERTEX
 10
46.054443
 20
-24.533813
  0
VERTEX
 10
47.412109
 20
-24.309570
  0
VERTEX
 10
48.661377
 20
-24.080933
  0
VERTEX
 10
49.765625
 20
-23.851562
  0
VERTEX
 10
50.688232
 20
-23.625122
  0
VERTEX
 10
51.069977
 20
-23.514145
  0
VERTEX
 10
51.392578
 20
-23.405273
  0
VERTEX
 10
51.651459
 20
-23.298965
  0
VERTEX
 10
51.842041
 20
-23.195679
  0
VERTEX
 10
51.959747
 20
-23.095871
  0
VERTEX
 10
51.989841
 20
-23.047415
  0
VERTEX
 10
52.000000
 20
-23.000000
  0
SEQEND
  0
POLYLINE
  6
CONTINUOUS
  8
Hintergrund
 41
0.100000
 41
0.100000
 62
40
 66
1
  0
VERTEX
 10
16.000000
 20
-25.000000
  0
VERTEX
 10
16.013794
 20
-25.192993
  0
VERTEX
 10
16.055665
 20
-25.395508
  0
VERTEX
 10
16.126346
 20
-25.605347
  0
VERTEX
 10
16.226567
 20
-25.820312
  0
VERTEX
 10
16.357062
 20
-26.038208
  0
VERTEX
 10
16.518563
 20
-26.256836
  0
VERTEX
 10
16.711803
 20
-26.473999
  0
VERTEX
 10
16.937512
 20
-26.687500
  0
VERTEX
 10
17.196425
 20
-26.895142
  0
VERTEX
 10
17.489272
 20
-27.094727
  0
VERTEX
 10
17.816787
 20
-27.284058
  0
VERTEX
 10
18.179702
 20
-27.460938
  0
VERTEX
 10
18.578748
 20
-27.623169
  0
VERTEX
 10
19.014658
 20
-27.768555
  0
VERTEX
 10
19.488165
 20
-27.894897
  0
VERTEX
 10
20.000000
 20
-28.000000
  0
VERTEX
 10
20.313050
 20
-28.043661
  0
VERTEX
 10
20.716791
 20
-28.080993
  0
VERTEX
 10
21.771344
 20
-28.137270
  0
VERTEX
 10
23.113659
 20
-28.170028
  0
VERTEX
 10
24.693734
 20
-28.180463
  0
VERTEX
 10
26.461572
 20
-28.169771
  0
VERTEX
 10
28.367170
 20
-28.139148
  0
VERTEX
 10
30.360529
 20
-28.089793
  0
VERTEX
 10
32.391650
 20
-28.022900
  0
VERTEX
 10
34.410531
 20
-27.939667
  0
VERTEX
 10
36.367174
 20
-27.841289
  0
VERTEX
 10
38.211577
 20
-27.728964
  0
VERTEX
 10
39.893741
 20
-27.603887
  0
VERTEX
 10
41.363665
 20
-27.467256
  0
VERTEX
 10
42.571350
 20
-27.320267
  0
VERTEX
 10
43.061227
 20
-27.243262
  0
VERTEX
 10
43.466795
 20
-27.164116
  0
VERTEX
 10
43.781802
 20
-27.082979
  0
VERTEX
 10
44.000000
 20
-27.000000
  0
VERTEX
 10
44.746094
 20
-26.623047
  0
VERTEX
 10
45.468750
 20
-26.234375
  0
VERTEX
 10
46.144531
 20
-25.822266
  0
VERTEX
 10
46.457520
 20
-25.603760
  0
VERTEX
 10
46.750000
 20
-25.375000
  0
VERTEX
 10
47.019043
 20
-25.134521
  0
VERTEX
 10
47.261719
 20
-24.880859
  0
VERTEX
 10
47.475098
 20
-24.612549
  0
VERTEX
 10
47.656250
 20
-24.328125
  0
VERTEX
 10
47.802246
 20
-24.026123
  0
VERTEX
 10
47.910156
 20
-23.705078
  0
VERTEX
 10
47.977051
 20
-23.363525
  0
VERTEX
 10
48.000000
 20
-23.000000
  0
SEQEND
  0
TEXT
  8
Hintergrund
  6
CONTINUOUS
 10
26.850000
 20
-27.221250
 40
0.800000
 50
0.000000
 72
1
  7
0
  1
100nF
 39
1
 62
0
  0
TEXT
  8
Hintergrund
  6
CONTINUOUS
 10
25.000000
 20
-31.221250
 40
0.800000
 50
0.000000
 72
1
  7
0
  1
Reset
 39
1
 62
0
  0
TEXT
  8
Hintergrund
  6
CONTINUOUS
 10
41.000000
 20
-30.821250
 40
0.800000
 50
0.000000
 72
1
  7
0
  1
ISP
 39
1
 62
0
  0
TEXT
  8
Hintergrund
  6
CONTINUOUS
 10
41.000000
 20
-31.621250
 40
0.800000
 50
0.000000
 72
1
  7
0
  1
Mode
 39
1
 62
0
  0
TEXT
  8
Hintergrund
  6
CONTINUOUS
 10
48.000000
 20
-12.821250
 40
0.800000
 50
0.000000
 72
1
  7
0
  1
P4
 39
1
 62
0
  0
TEXT
  8
Hintergrund
  6
CONTINUOUS
 10
48.000000
 20
-13.621250
 40
0.800000
 50
0.000000
 72
1
  7
0
  1
GND
 39
1
 62
0
  0
TEXT
  8
Hintergrund
  6
CONTINUOUS
 10
52.000000
 20
-12.821250
 40
0.800000
 50
0.000000
 72
1
  7
0
  1
P2
 39
1
 62
0
  0
TEXT
  8
Hintergrund
  6
CONTINUOUS
 10
52.000000
 20
-13.621250
 40
0.800000
 50
0.000000
 72
1
  7
0
  1
3.3V
 39
1
 62
0
  0
TEXT
  8
Hintergrund
  6
CONTINUOUS
 10
50.000000
 20
-17.391250
 40
1.411111
 50
0.000000
 72
1
  7
0
  1
UMFT234XF
 39
1
 62
0
  0
TEXT
  8
Hintergrund
  6
CONTINUOUS
 10
40.000000
 20
-12.821250
 40
0.800000
 50
0.000000
 72
1
  7
0
  1
2
 39
1
 62
0
  0
TEXT
  8
Hintergrund
  6
CONTINUOUS
 10
40.000000
 20
-13.621250
 40
0.800000
 50
0.000000
 72
1
  7
0
  1
MOSI
 39
1
 62
0
  0
TEXT
  8
Hintergrund
  6
CONTINUOUS
 10
38.000000
 20
-12.821250
 40
0.800000
 50
0.000000
 72
1
  7
0
  1
3
 39
1
 62
0
  0
TEXT
  8
Hintergrund
  6
CONTINUOUS
 10
38.000000
 20
-13.621250
 40
0.800000
 50
0.000000
 72
1
  7
0
  1
SCK
 39
1
 62
0
  0
TEXT
  8
Hintergrund
  6
CONTINUOUS
 10
22.000000
 20
-12.821250
 40
0.800000
 50
0.000000
 72
1
  7
0
  1
11
 39
1
 62
0
  0
TEXT
  8
Hintergrund
  6
CONTINUOUS
 10
22.000000
 20
-13.621250
 40
0.800000
 50
0.000000
 72
1
  7
0
  1
CS
 39
1
 62
0
  0
TEXT
  8
Hintergrund
  6
CONTINUOUS
 10
22.000000
 20
-14.000000
 40
0.800000
 50
0.000000
 72
0
  7
0
  1

 39
1
 62
0
  0
TEXT
  8
Hintergrund
  6
CONTINUOUS
 10
24.000000
 20
-12.821250
 40
0.800000
 50
0.000000
 72
1
  7
0
  1
10
 39
1
 62
0
  0
TEXT
  8
Hintergrund
  6
CONTINUOUS
 10
24.000000
 20
-13.621250
 40
0.800000
 50
0.000000
 72
1
  7
0
  1
A0
 39
1
 62
0
  0
TEXT
  8
Hintergrund
  6
CONTINUOUS
 10
24.000000
 20
-13.000000
 40
0.800000
 50
0.000000
 72
0
  7
0
  1

 39
1
 62
0
  0
TEXT
  8
Hintergrund
  6
CONTINUOUS
 10
21.000000
 20
-14.000000
 40
0.800000
 50
0.000000
 72
0
  7
0
  1

 39
1
 62
0
  0
TEXT
  8
Hintergrund
  6
CONTINUOUS
 10
26.000000
 20
-12.821250
 40
0.800000
 50
0.000000
 72
1
  7
0
  1
9
 39
1
 62
0
  0
TEXT
  8
Hintergrund
  6
CONTINUOUS
 10
26.000000
 20
-13.621250
 40
0.800000
 50
0.000000
 72
1
  7
0
  1
LcdRst
 39
1
 62
0
  0
POLYLINE
  6
CONTINUOUS
  8
Hintergrund
 41
0.100000
 41
0.100000
 62
9
 66
1
  0
VERTEX
 10
30.000000
 20
-27.000000
  0
VERTEX
 10
30.207581
 20
-27.087952
  0
VERTEX
 10
30.453613
 20
-27.164551
  0
VERTEX
 10
30.735535
 20
-27.230164
  0
VERTEX
 10
31.050781
 20
-27.285156
  0
VERTEX
 10
31.770996
 20
-27.364746
  0
VERTEX
 10
32.593750
 20
-27.406250
  0
VERTEX
 10
33.498535
 20
-27.412598
  0
VERTEX
 10
34.464844
 20
-27.386719
  0
VERTEX
 10
35.472168
 20
-27.331543
  0
VERTEX
 10
36.500000
 20
-27.250000
  0
VERTEX
 10
37.527832
 20
-27.145020
  0
VERTEX
 10
38.535156
 20
-27.019531
  0
VERTEX
 10
39.501465
 20
-26.876465
  0
VERTEX
 10
40.406250
 20
-26.718750
  0
VERTEX
 10
41.229004
 20
-26.549316
  0
VERTEX
 10
41.949219
 20
-26.371094
  0
VERTEX
 10
42.546387
 20
-26.187012
  0
VERTEX
 10
42.792419
 20
-26.093689
  0
VERTEX
 10
43.000000
 20
-26.000000
  0
VERTEX
 10
43.090847
 20
-25.943703
  0
VERTEX
 10
43.175995
 20
-25.868958
  0
VERTEX
 10
43.329834
 20
-25.666504
  0
VERTEX
 10
43.462799
 20
-25.397400
  0
VERTEX
 10
43.576172
 20
-25.066406
  0
VERTEX
 10
43.671234
 20
-24.678284
  0
VERTEX
 10
43.749268
 20
-24.237793
  0
VERTEX
 10
43.811554
 20
-23.749695
  0
VERTEX
 10
43.859375
 20
-23.218750
  0
VERTEX
 10
43.916748
 20
-22.047363
  0
VERTEX
 10
43.931641
 20
-20.761719
  0
VERTEX
 10
43.914307
 20
-19.399902
  0
VERTEX
 10
43.875000
 20
-18.000000
  0
VERTEX
 10
43.771484
 20
-15.238281
  0
VERTEX
 10
43.727783
 20
-13.952637
  0
VERTEX
 10
43.703125
 20
-12.781250
  0
VERTEX
 10
43.707764
 20
-11.762207
  0
VERTEX
 10
43.751953
 20
-10.933594
  0
VERTEX
 10
43.792084
 20
-10.602600
  0
VERTEX
 10
43.845947
 20
-10.333496
  0
VERTEX
 10
43.914825
 20
-10.131042
  0
VERTEX
 10
44.000000
 20
-10.000000
  0
VERTEX
 10
44.305200
 20
-9.728311
  0
VERTEX
 10
44.624782
 20
-9.505547
  0
VERTEX
 10
44.954086
 20
-9.330773
  0
VERTEX
 10
45.288455
 20
-9.203053
  0
VERTEX
 10
45.623228
 20
-9.121451
  0
VERTEX
 10
45.953747
 20
-9.085031
  0
VERTEX
 10
46.275353
 20
-9.092858
  0
VERTEX
 10
46.583388
 20
-9.143996
  0
VERTEX
 10
46.873191
 20
-9.237509
  0
VERTEX
 10
47.140104
 20
-9.372462
  0
VERTEX
 10
47.379469
 20
-9.547918
  0
VERTEX
 10
47.586627
 20
-9.762941
  0
VERTEX
 10
47.756917
 20
-10.016597
  0
VERTEX
 10
47.885682
 20
-10.307950
  0
VERTEX
 10
47.968263
 20
-10.636062
  0
VERTEX
 10
48.000000
 20
-11.000000
  0
SEQEND
  0
POLYLINE
  6
CONTINUOUS
  8
Hintergrund
 41
0.100000
 41
0.100000
 62
9
 66
1
  0
VERTEX
 10
40.000000
 20
-33.000000
  0
VERTEX
 10
40.332031
 20
-32.998047
  0
VERTEX
 10
40.593750
 20
-32.984375
  0
VERTEX
 10
40.808594
 20
-32.947266
  0
VERTEX
 10
41.000000
 20
-32.875000
  0
VERTEX
 10
41.191406
 20
-32.755859
  0
VERTEX
 10
41.406250
 20
-32.578125
  0
VERTEX
 10
42.000000
 20
-32.000000
  0
VERTEX
 10
42.175558
 20
-31.790321
  0
VERTEX
 10
42.328335
 20
-31.539074
  0
VERTEX
 10
42.459981
 20
-31.250443
  0
VERTEX
 10
42.572148
 20
-30.928611
  0
VERTEX
 10
42.666489
 20
-30.577763
  0
VERTEX
 10
42.744653
 20
-30.202083
  0
VERTEX
 10
42.808294
 20
-29.805755
  0
VERTEX
 10
42.859063
 20
-29.392962
  0
VERTEX
 10
42.928589
 20
-28.534722
  0
VERTEX
 10
42.966445
 20
-27.660833
  0
VERTEX
 10
43.000000
 20
-26.000000
  0
SEQEND
  0
LINE
  8
Hintergrund
  6
CONTINUOUS
 10
16.000000
 20
-4.000000
 11
16.000000
 21
-5.000000
 39
0
 62
0
  0
LINE
  8
Hintergrund
  6
CONTINUOUS
 10
18.000000
 20
-4.000000
 11
18.000000
 21
-5.000000
 39
0
 62
0
  0
LINE
  8
Hintergrund
  6
CONTINUOUS
 10
20.000000
 20
-4.000000
 11
20.000000
 21
-5.000000
 39
0
 62
0
  0
LINE
  8
Hintergrund
  6
CONTINUOUS
 10
22.000000
 20
-4.000000
 11
22.000000
 21
-5.000000
 39
0
 62
0
  0
LINE
  8
Hintergrund
  6
CONTINUOUS
 10
24.000000
 20
-4.000000
 11
24.000000
 21
-5.000000
 39
0
 62
0
  0
LINE
  8
Hintergrund
  6
CONTINUOUS
 10
26.000000
 20
-4.000000
 11
26.000000
 21
-5.000000
 39
0
 62
0
  0
LINE
  8
Hintergrund
  6
CONTINUOUS
 10
28.000000
 20
-4.000000
 11
28.000000
 21
-5.000000
 39
0
 62
0
  0
SOLID
 62
7
 10
15.000000
 20
-4.140133
 11
15.000000
 21
-2.000000
 12
29.000000
 22
-4.140133
 13
29.000000
 23
-2.000000
  0
LINE
  8
Hintergrund
  6
CONTINUOUS
 10
15.000000
 20
-2.000000
 11
29.000000
 21
-2.000000
 39
0
 62
0
  0
LINE
  8
Hintergrund
  6
CONTINUOUS
 10
29.000000
 20
-2.000000
 11
29.000000
 21
-4.140133
 39
0
 62
0
  0
LINE
  8
Hintergrund
  6
CONTINUOUS
 10
29.000000
 20
-4.140133
 11
15.000000
 21
-4.140133
 39
0
 62
0
  0
LINE
  8
Hintergrund
  6
CONTINUOUS
 10
15.000000
 20
-4.140133
 11
15.000000
 21
-2.000000
 39
0
 62
0
  0
TEXT
  8
Hintergrund
  6
CONTINUOUS
 10
26.000000
 20
-3.221250
 40
0.800000
 50
0.000000
 72
1
  7
0
  1
CS
 39
0
 62
0
  0
TEXT
  8
Hintergrund
  6
CONTINUOUS
 10
28.000000
 20
-3.221250
 40
0.800000
 50
0.000000
 72
1
  7
0
  1
LcdRst
 39
0
 62
0
  0
TEXT
  8
Hintergrund
  6
CONTINUOUS
 10
24.000000
 20
-3.221250
 40
0.800000
 50
0.000000
 72
1
  7
0
  1
SCK
 39
0
 62
0
  0
TEXT
  8
Hintergrund
  6
CONTINUOUS
 10
22.000000
 20
-3.291320
 40
0.800000
 50
0.000000
 72
1
  7
0
  1
SDA
 39
0
 62
0
  0
TEXT
  8
Hintergrund
  6
CONTINUOUS
 10
20.000000
 20
-3.221250
 40
0.800000
 50
0.000000
 72
1
  7
0
  1
A0
 39
0
 62
0
  0
TEXT
  8
Hintergrund
  6
CONTINUOUS
 10
18.000000
 20
-3.221250
 40
0.800000
 50
0.000000
 72
1
  7
0
  1
3.3V
 39
0
 62
0
  0
TEXT
  8
Hintergrund
  6
CONTINUOUS
 10
16.000000
 20
-3.221250
 40
0.800000
 50
0.000000
 72
1
  7
0
  1
GND
 39
0
 62
0
  0
POLYLINE
  6
CONTINUOUS
  8
Hintergrund
 41
0.100000
 41
0.100000
 62
40
 66
1
  0
VERTEX
 10
22.000000
 20
-5.000000
  0
VERTEX
 10
22.001953
 20
-5.330078
  0
VERTEX
 10
22.015625
 20
-5.578125
  0
VERTEX
 10
22.052734
 20
-5.755859
  0
VERTEX
 10
22.083740
 20
-5.822021
  0
VERTEX
 10
22.125000
 20
-5.875000
  0
VERTEX
 10
22.177979
 20
-5.916260
  0
VERTEX
 10
22.244141
 20
-5.947266
  0
VERTEX
 10
22.421875
 20
-5.984375
  0
VERTEX
 10
22.669922
 20
-5.998047
  0
VERTEX
 10
23.000000
 20
-6.000000
  0
VERTEX
 10
25.796536
 20
-6.012841
  0
VERTEX
 10
28.266942
 20
-6.047514
  0
VERTEX
 10
31.040762
 20
-6.117575
  0
VERTEX
 10
32.445044
 20
-6.169756
  0
VERTEX
 10
33.809487
 20
-6.235439
  0
VERTEX
 10
35.095530
 20
-6.316177
  0
VERTEX
 10
36.264608
 20
-6.413522
  0
VERTEX
 10
37.278157
 20
-6.529024
  0
VERTEX
 10
38.097615
 20
-6.664237
  0
VERTEX
 10
38.422508
 20
-6.739720
  0
VERTEX
 10
38.684417
 20
-6.820712
  0
VERTEX
 10
38.878521
 20
-6.907407
  0
VERTEX
 10
39.000000
 20
-7.000000
  0
VERTEX
 10
39.171561
 20
-7.207982
  0
VERTEX
 10
39.321744
 20
-7.414730
  0
VERTEX
 10
39.452014
 20
-7.621710
  0
VERTEX
 10
39.563838
 20
-7.830386
  0
VERTEX
 10
39.658678
 20
-8.042222
  0
VERTEX
 10
39.738000
 20
-8.258685
  0
VERTEX
 10
39.855950
 20
-8.711348
  0
VERTEX
 10
39.929406
 20
-9.200091
  0
VERTEX
 10
39.970088
 20
-9.736636
  0
VERTEX
 10
40.000000
 20
-11.000000
  0
SEQEND
  0
POLYLINE
  6
CONTINUOUS
  8
Hintergrund
 41
0.100000
 41
0.100000
 62
40
 66
1
  0
VERTEX
 10
24.000000
 20
-5.000000
  0
VERTEX
 10
24.001953
 20
-5.373047
  0
VERTEX
 10
24.015625
 20
-5.734375
  0
VERTEX
 10
24.052734
 20
-6.072266
  0
VERTEX
 10
24.125000
 20
-6.375000
  0
VERTEX
 10
24.177979
 20
-6.509521
  0
VERTEX
 10
24.244141
 20
-6.630859
  0
VERTEX
 10
24.324951
 20
-6.737549
  0
VERTEX
 10
24.421875
 20
-6.828125
  0
VERTEX
 10
24.536377
 20
-6.901123
  0
VERTEX
 10
24.669922
 20
-6.955078
  0
VERTEX
 10
24.823975
 20
-6.988525
  0
VERTEX
 10
25.000000
 20
-7.000000
  0
VERTEX
 10
27.171536
 20
-7.012841
  0
VERTEX
 10
29.001317
 20
-7.047514
  0
VERTEX
 10
31.040762
 20
-7.117575
  0
VERTEX
 10
32.071997
 20
-7.169756
  0
VERTEX
 10
33.075112
 20
-7.235439
  0
VERTEX
 10
34.023264
 20
-7.316177
  0
VERTEX
 10
34.889608
 20
-7.413522
  0
VERTEX
 10
35.647298
 20
-7.529024
  0
VERTEX
 10
36.269490
 20
-7.664237
  0
VERTEX
 10
36.521385
 20
-7.739720
  0
VERTEX
 10
36.729339
 20
-7.820712
  0
VERTEX
 10
36.889996
 20
-7.907407
  0
VERTEX
 10
37.000000
 20
-8.000000
  0
VERTEX
 10
37.322786
 20
-8.408055
  0
VERTEX
 10
37.567409
 20
-8.798570
  0
VERTEX
 10
37.744697
 20
-9.175594
  0
VERTEX
 10
37.865475
 20
-9.543174
  0
VERTEX
 10
37.940568
 20
-9.905357
  0
VERTEX
 10
37.980803
 20
-10.266190
  0
VERTEX
 10
37.997005
 20
-10.629722
  0
VERTEX
 10
38.000000
 20
-11.000000
  0
SEQEND
  0
POLYLINE
  6
CONTINUOUS
  8
Hintergrund
 41
0.100000
 41
0.100000
 62
3
 66
1
  0
VERTEX
 10
20.000000
 20
-5.000000
  0
VERTEX
 10
20.001953
 20
-5.375000
  0
VERTEX
 10
20.015625
 20
-5.750000
  0
VERTEX
 10
20.052734
 20
-6.125000
  0
VERTEX
 10
20.125000
 20
-6.500000
  0
VERTEX
 10
20.244141
 20
-6.875000
  0
VERTEX
 10
20.324951
 20
-7.062500
  0
VERTEX
 10
20.421875
 20
-7.250000
  0
VERTEX
 10
20.536377
 20
-7.437500
  0
VERTEX
 10
20.669922
 20
-7.625000
  0
VERTEX
 10
20.823975
 20
-7.812500
  0
VERTEX
 10
21.000000
 20
-8.000000
  0
VERTEX
 10
21.176270
 20
-8.165039
  0
VERTEX
 10
21.332031
 20
-8.289062
  0
VERTEX
 10
21.470215
 20
-8.377930
  0
VERTEX
 10
21.593750
 20
-8.437500
  0
VERTEX
 10
21.705566
 20
-8.473633
  0
VERTEX
 10
21.808594
 20
-8.492188
  0
VERTEX
 10
22.000000
 20
-8.500000
  0
VERTEX
 10
22.191406
 20
-8.507812
  0
VERTEX
 10
22.294434
 20
-8.526367
  0
VERTEX
 10
22.406250
 20
-8.562500
  0
VERTEX
 10
22.529785
 20
-8.622070
  0
VERTEX
 10
22.667969
 20
-8.710938
  0
VERTEX
 10
22.823730
 20
-8.834961
  0
VERTEX
 10
23.000000
 20
-9.000000
  0
VERTEX
 10
23.598038
 20
-9.613663
  0
VERTEX
 10
23.776602
 20
-9.829336
  0
VERTEX
 10
23.892700
 20
-10.017700
  0
VERTEX
 10
23.959711
 20
-10.203852
  0
VERTEX
 10
23.991013
 20
-10.412888
  0
VERTEX
 10
24.000000
 20
-11.000000
  0
SEQEND
  0
TEXT
  8
Hintergrund
  6
CONTINUOUS
 10
29.000000
 20
-18.391250
 40
1.411111
 50
0.000000
 72
1
  7
0
  1
LPC1114FN28
 39
1
 62
0
  0
POLYLINE
  6
CONTINUOUS
  8
Hintergrund
 41
0.100000
 41
0.100000
 62
5
 66
1
  0
VERTEX
 10
26.000000
 20
-5.000000
  0
VERTEX
 10
26.000000
 20
-6.000000
  0
VERTEX
 10
26.000000
 20
-7.000000
  0
VERTEX
 10
25.988525
 20
-7.138939
  0
VERTEX
 10
25.955078
 20
-7.277998
  0
VERTEX
 10
25.901123
 20
-7.417077
  0
VERTEX
 10
25.828125
 20
-7.556071
  0
VERTEX
 10
25.630859
 20
-7.833402
  0
VERTEX
 10
25.375000
 20
-8.109176
  0
VERTEX
 10
25.072266
 20
-8.382576
  0
VERTEX
 10
24.734375
 20
-8.652788
  0
VERTEX
 10
24.000000
 20
-9.180379
  0
VERTEX
 10
23.265625
 20
-9.685423
  0
VERTEX
 10
22.927734
 20
-9.927450
  0
VERTEX
 10
22.625000
 20
-10.161392
  0
VERTEX
 10
22.369141
 20
-10.386434
  0
VERTEX
 10
22.171875
 20
-10.601760
  0
VERTEX
 10
22.098877
 20
-10.705525
  0
VERTEX
 10
22.044922
 20
-10.806554
  0
VERTEX
 10
22.011475
 20
-10.904747
  0
VERTEX
 10
22.000000
 20
-11.000000
  0
SEQEND
  0
POLYLINE
  6
CONTINUOUS
  8
Hintergrund
 41
0.100000
 41
0.100000
 62
251
 66
1
  0
VERTEX
 10
28.000000
 20
-5.000000
  0
VERTEX
 10
28.000000
 20
-6.000000
  0
VERTEX
 10
28.000000
 20
-7.000000
  0
VERTEX
 10
27.977539
 20
-7.277998
  0
VERTEX
 10
27.914062
 20
-7.556071
  0
VERTEX
 10
27.815430
 20
-7.833402
  0
VERTEX
 10
27.687500
 20
-8.109176
  0
VERTEX
 10
27.536133
 20
-8.382576
  0
VERTEX
 10
27.367188
 20
-8.652788
  0
VERTEX
 10
27.000000
 20
-9.180379
  0
VERTEX
 10
26.632812
 20
-9.685423
  0
VERTEX
 10
26.312500
 20
-10.161392
  0
VERTEX
 10
26.184570
 20
-10.386434
  0
VERTEX
 10
26.085938
 20
-10.601760
  0
VERTEX
 10
26.022461
 20
-10.806554
  0
VERTEX
 10
26.000000
 20
-11.000000
  0
SEQEND
  0
POLYLINE
  6
CONTINUOUS
  8
Hintergrund
 41
0.100000
 41
0.100000
 62
9
 66
1
  0
VERTEX
 10
16.000000
 20
-5.000000
  0
VERTEX
 10
16.011719
 20
-5.363525
  0
VERTEX
 10
16.046875
 20
-5.705078
  0
VERTEX
 10
16.105469
 20
-6.026123
  0
VERTEX
 10
16.187500
 20
-6.328125
  0
VERTEX
 10
16.292969
 20
-6.612549
  0
VERTEX
 10
16.421875
 20
-6.880859
  0
VERTEX
 10
16.574219
 20
-7.134521
  0
VERTEX
 10
16.750000
 20
-7.375000
  0
VERTEX
 10
16.949219
 20
-7.603760
  0
VERTEX
 10
17.171875
 20
-7.822266
  0
VERTEX
 10
17.417969
 20
-8.031982
  0
VERTEX
 10
17.687500
 20
-8.234375
  0
VERTEX
 10
17.980469
 20
-8.430908
  0
VERTEX
 10
18.296875
 20
-8.623047
  0
VERTEX
 10
19.000000
 20
-9.000000
  0
VERTEX
 10
19.243667
 20
-9.087982
  0
VERTEX
 10
19.594815
 20
-9.164795
  0
VERTEX
 10
20.046163
 20
-9.230988
  0
VERTEX
 10
20.590433
 20
-9.287109
  0
VERTEX
 10
21.928617
 20
-9.371338
  0
VERTEX
 10
23.551128
 20
-9.421875
  0
VERTEX
 10
25.399728
 20
-9.443115
  0
VERTEX
 10
27.416178
 20
-9.439453
  0
VERTEX
 10
29.542240
 20
-9.415283
  0
VERTEX
 10
31.719675
 20
-9.375000
  0
VERTEX
 10
35.995713
 20
-9.263672
  0
VERTEX
 10
39.778384
 20
-9.140625
  0
VERTEX
 10
42.601782
 20
-9.041016
  0
VERTEX
 10
44.000000
 20
-9.000000
  0
VERTEX
 10
44.745052
 20
-9.002476
  0
VERTEX
 10
45.465178
 20
-9.026346
  0
VERTEX
 10
45.808849
 20
-9.054012
  0
VERTEX
 10
46.137834
 20
-9.096275
  0
VERTEX
 10
46.449315
 20
-9.156218
  0
VERTEX
 10
46.740475
 20
-9.236924
  0
VERTEX
 10
47.008495
 20
-9.341476
  0
VERTEX
 10
47.250557
 20
-9.472958
  0
VERTEX
 10
47.463843
 20
-9.634451
  0
VERTEX
 10
47.645534
 20
-9.829039
  0
VERTEX
 10
47.792814
 20
-10.059805
  0
VERTEX
 10
47.902864
 20
-10.329832
  0
VERTEX
 10
47.972865
 20
-10.642203
  0
VERTEX
 10
48.000000
 20
-11.000000
  0
SEQEND
  0
POLYLINE
  6
CONTINUOUS
  8
Hintergrund
 41
0.100000
 41
0.100000
 62
1
 66
1
  0
VERTEX
 10
18.000000
 20
-5.000000
  0
VERTEX
 10
18.003906
 20
-5.662109
  0
VERTEX
 10
18.031250
 20
-6.171875
  0
VERTEX
 10
18.061035
 20
-6.380615
  0
VERTEX
 10
18.105469
 20
-6.564453
  0
VERTEX
 10
18.167480
 20
-6.727783
  0
VERTEX
 10
18.250000
 20
-6.875000
  0
VERTEX
 10
18.355957
 20
-7.010498
  0
VERTEX
 10
18.488281
 20
-7.138672
  0
VERTEX
 10
18.649902
 20
-7.263916
  0
VERTEX
 10
18.843750
 20
-7.390625
  0
VERTEX
 10
19.339844
 20
-7.666016
  0
VERTEX
 10
20.000000
 20
-8.000000
  0
VERTEX
 10
20.252273
 20
-8.088126
  0
VERTEX
 10
20.628506
 20
-8.165356
  0
VERTEX
 10
21.120321
 20
-8.232224
  0
VERTEX
 10
21.719339
 20
-8.289258
  0
VERTEX
 10
23.205473
 20
-8.375952
  0
VERTEX
 10
25.019878
 20
-8.429688
  0
VERTEX
 10
27.095529
 20
-8.454712
  0
VERTEX
 10
29.365396
 20
-8.455273
  0
VERTEX
 10
31.762454
 20
-8.435620
  0
VERTEX
 10
34.219675
 20
-8.400000
  0
VERTEX
 10
39.046494
 20
-8.297852
  0
VERTEX
 10
43.309634
 20
-8.182813
  0
VERTEX
 10
46.472876
 20
-8.088867
  0
VERTEX
 10
48.000000
 20
-8.050000
  0
VERTEX
 10
48.374233
 20
-8.060774
  0
VERTEX
 10
48.745052
 20
-8.093296
  0
VERTEX
 10
49.109640
 20
-8.147866
  0
VERTEX
 10
49.465178
 20
-8.224784
  0
VERTEX
 10
49.808849
 20
-8.324349
  0
VERTEX
 10
50.137834
 20
-8.446860
  0
VERTEX
 10
50.449315
 20
-8.592619
  0
VERTEX
 10
50.740475
 20
-8.761924
  0
VERTEX
 10
51.008495
 20
-8.955075
  0
VERTEX
 10
51.250557
 20
-9.172372
  0
VERTEX
 10
51.463843
 20
-9.414114
  0
VERTEX
 10
51.645534
 20
-9.680602
  0
VERTEX
 10
51.792814
 20
-9.972134
  0
VERTEX
 10
51.902864
 20
-10.289012
  0
VERTEX
 10
51.972865
 20
-10.631534
  0
VERTEX
 10
52.000000
 20
-11.000000
  0
SEQEND
  0
POLYLINE
  6
CONTINUOUS
  8
Hintergrund
 41
0.100000
 41
0.100000
 62
1
 66
1
  0
VERTEX
 10
18.000000
 20
-5.000000
  0
VERTEX
 10
17.991364
 20
-5.184620
  0
VERTEX
 10
17.966071
 20
-5.363676
  0
VERTEX
 10
17.925039
 20
-5.537465
  0
VERTEX
 10
17.869190
 20
-5.706282
  0
VERTEX
 10
17.716720
 20
-6.030185
  0
VERTEX
 10
17.516022
 20
-6.337754
  0
VERTEX
 10
17.274457
 20
-6.631355
  0
VERTEX
 10
16.999386
 20
-6.913356
  0
VERTEX
 10
16.698172
 20
-7.186126
  0
VERTEX
 10
16.378175
 20
-7.452030
  0
VERTEX
 10
15.711279
 20
-7.972715
  0
VERTEX
 10
15.057591
 20
-8.494351
  0
VERTEX
 10
14.754102
 20
-8.761445
  0
VERTEX
 10
14.476000
 20
-9.035880
  0
VERTEX
 10
14.230646
 20
-9.320022
  0
VERTEX
 10
14.025400
 20
-9.616240
  0
VERTEX
 10
13.933903
 20
-9.796896
  0
VERTEX
 10
13.842533
 20
-10.033386
  0
VERTEX
 10
13.662461
 20
-10.659273
  0
VERTEX
 10
13.489763
 20
-11.464725
  0
VERTEX
 10
13.329022
 20
-12.420562
  0
VERTEX
 10
13.184817
 20
-13.497608
  0
VERTEX
 10
13.061729
 20
-14.666685
  0
VERTEX
 10
12.964338
 20
-15.898614
  0
VERTEX
 10
12.897225
 20
-17.164217
  0
VERTEX
 10
12.864971
 20
-18.434318
  0
VERTEX
 10
12.872156
 20
-19.679738
  0
VERTEX
 10
12.923361
 20
-20.871299
  0
VERTEX
 10
12.966902
 20
-21.437765
  0
VERTEX
 10
13.023166
 20
-21.979824
  0
VERTEX
 10
13.092725
 20
-22.493830
  0
VERTEX
 10
13.176152
 20
-22.976134
  0
VERTEX
 10
13.274019
 20
-23.423091
  0
VERTEX
 10
13.386899
 20
-23.831052
  0
VERTEX
 10
13.515364
 20
-24.196371
  0
VERTEX
 10
13.659988
 20
-24.515400
  0
VERTEX
 10
13.821342
 20
-24.784492
  0
VERTEX
 10
14.000000
 20
-25.000000
  0
VERTEX
 10
14.213287
 20
-25.181702
  0
VERTEX
 10
14.475830
 20
-25.352051
  0
VERTEX
 10
14.784149
 20
-25.511414
  0
VERTEX
 10
15.134766
 20
-25.660156
  0
VERTEX
 10
15.524200
 20
-25.798645
  0
VERTEX
 10
15.948975
 20
-25.927246
  0
VERTEX
 10
16.405609
 20
-26.046326
  0
VERTEX
 10
16.890625
 20
-26.156250
  0
VERTEX
 10
17.931885
 20
-26.350098
  0
VERTEX
 10
19.044922
 20
-26.511719
  0
VERTEX
 10
20.201904
 20
-26.644043
  0
VERTEX
 10
21.375000
 20
-26.750000
  0
VERTEX
 10
22.536377
 20
-26.832520
  0
VERTEX
 10
23.658203
 20
-26.894531
  0
VERTEX
 10
25.671875
 20
-26.968750
  0
VERTEX
 10
27.193359
 20
-26.996094
  0
VERTEX
 10
28.000000
 20
-27.000000
  0
SEQEND
0
ENDSEC
0
EOF
