<svg xmlns="http://www.w3.org/2000/svg" xmlns:svg="http://www.w3.org/2000/svg" width="13.44" height="2.04in" x="0" y="0" baseProfile="tiny" version="1.2" viewBox="0 0 140 2040"><g id="copper0" stroke-width="0"><rect width="55" height="55" x="42.5" y="42.5" fill="none" stroke="#FFBF00" stroke-width="20"/><circle id="connector0pin" cx="70" cy="70" r="27.5" fill="none" stroke="#FFBF00" stroke-width="20"/><circle id="connector1pin" cx="70" cy="170" r="27.5" fill="none" stroke="#FFBF00" stroke-width="20"/><circle id="connector2pin" cx="70" cy="270" r="27.5" fill="none" stroke="#FFBF00" stroke-width="20"/><circle id="connector3pin" cx="70" cy="370" r="27.5" fill="none" stroke="#FFBF00" stroke-width="20"/><circle id="connector4pin" cx="70" cy="470" r="27.5" fill="none" stroke="#FFBF00" stroke-width="20"/><circle id="connector5pin" cx="70" cy="570" r="27.5" fill="none" stroke="#FFBF00" stroke-width="20"/><circle id="connector6pin" cx="70" cy="670" r="27.5" fill="none" stroke="#FFBF00" stroke-width="20"/><circle id="connector7pin" cx="70" cy="770" r="27.5" fill="none" stroke="#FFBF00" stroke-width="20"/><circle id="connector8pin" cx="70" cy="870" r="27.5" fill="none" stroke="#FFBF00" stroke-width="20"/><circle id="connector9pin" cx="70" cy="970" r="27.5" fill="none" stroke="#FFBF00" stroke-width="20"/><circle id="connector10pin" cx="70" cy="1070" r="27.5" fill="none" stroke="#FFBF00" stroke-width="20"/><circle id="connector11pin" cx="70" cy="1170" r="27.5" fill="none" stroke="#FFBF00" stroke-width="20"/><circle id="connector12pin" cx="70" cy="1270" r="27.5" fill="none" stroke="#FFBF00" stroke-width="20"/><circle id="connector13pin" cx="70" cy="1370" r="27.5" fill="none" stroke="#FFBF00" stroke-width="20"/><circle id="connector14pin" cx="70" cy="1470" r="27.5" fill="none" stroke="#FFBF00" stroke-width="20"/><circle id="connector15pin" cx="70" cy="1570" r="27.5" fill="none" stroke="#FFBF00" stroke-width="20"/><circle id="connector16pin" cx="70" cy="1670" r="27.5" fill="none" stroke="#FFBF00" stroke-width="20"/><circle id="connector17pin" cx="70" cy="1770" r="27.5" fill="none" stroke="#FFBF00" stroke-width="20"/><circle id="connector18pin" cx="70" cy="1870" r="27.5" fill="none" stroke="#FFBF00" stroke-width="20"/><circle id="connector19pin" cx="70" cy="1970" r="27.5" fill="none" stroke="#FFBF00" stroke-width="20"/></g><g id="copper1" stroke-width="0"><g id="copper0" stroke-width="0"><rect width="55" height="55" x="42.5" y="42.5" fill="none" stroke="#FFBF00" stroke-width="20"/><circle id="connector0pin" cx="70" cy="70" r="27.5" fill="none" stroke="#FFBF00" stroke-width="20"/><circle id="connector1pin" cx="70" cy="170" r="27.5" fill="none" stroke="#FFBF00" stroke-width="20"/><circle id="connector2pin" cx="70" cy="270" r="27.5" fill="none" stroke="#FFBF00" stroke-width="20"/><circle id="connector3pin" cx="70" cy="370" r="27.5" fill="none" stroke="#FFBF00" stroke-width="20"/><circle id="connector4pin" cx="70" cy="470" r="27.5" fill="none" stroke="#FFBF00" stroke-width="20"/><circle id="connector5pin" cx="70" cy="570" r="27.5" fill="none" stroke="#FFBF00" stroke-width="20"/><circle id="connector6pin" cx="70" cy="670" r="27.5" fill="none" stroke="#FFBF00" stroke-width="20"/><circle id="connector7pin" cx="70" cy="770" r="27.5" fill="none" stroke="#FFBF00" stroke-width="20"/><circle id="connector8pin" cx="70" cy="870" r="27.5" fill="none" stroke="#FFBF00" stroke-width="20"/><circle id="connector9pin" cx="70" cy="970" r="27.5" fill="none" stroke="#FFBF00" stroke-width="20"/><circle id="connector10pin" cx="70" cy="1070" r="27.5" fill="none" stroke="#FFBF00" stroke-width="20"/><circle id="connector11pin" cx="70" cy="1170" r="27.5" fill="none" stroke="#FFBF00" stroke-width="20"/><circle id="connector12pin" cx="70" cy="1270" r="27.5" fill="none" stroke="#FFBF00" stroke-width="20"/><circle id="connector13pin" cx="70" cy="1370" r="27.5" fill="none" stroke="#FFBF00" stroke-width="20"/><circle id="connector14pin" cx="70" cy="1470" r="27.5" fill="none" stroke="#FFBF00" stroke-width="20"/><circle id="connector15pin" cx="70" cy="1570" r="27.5" fill="none" stroke="#FFBF00" stroke-width="20"/><circle id="connector16pin" cx="70" cy="1670" r="27.5" fill="none" stroke="#FFBF00" stroke-width="20"/><circle id="connector17pin" cx="70" cy="1770" r="27.5" fill="none" stroke="#FFBF00" stroke-width="20"/><circle id="connector18pin" cx="70" cy="1870" r="27.5" fill="none" stroke="#FFBF00" stroke-width="20"/><circle id="connector19pin" cx="70" cy="1970" r="27.5" fill="none" stroke="#FFBF00" stroke-width="20"/></g></g><g id="silkscreen" stroke-width="0"><line x1="20" x2="20" y1="20" y2="2020" stroke="#fff" stroke-width="10"/><line x1="20" x2="120" y1="2020" y2="2020" stroke="#fff" stroke-width="10"/><line x1="120" x2="120" y1="2020" y2="20" stroke="#fff" stroke-width="10"/><line x1="120" x2="20" y1="20" y2="20" stroke="#fff" stroke-width="10"/><line x1="20" x2="120" y1="120" y2="120" stroke="#fff" stroke-width="5"/></g></svg>