<svg xmlns="http://www.w3.org/2000/svg" xmlns:svg="http://www.w3.org/2000/svg" width="28.8" height="31.68" x="0" y="0" baseProfile="tiny" version="1.2" viewBox="0 0 300 330"><g id="icon" stroke-width="0"><rect id="middle" width="300" height="270" x="0" y="30" fill="#303030" stroke-width="0"/><rect id="top" width="300" height="24.6" x="0" y="30" fill="#3D3D3D" stroke-width="0"/><rect id="bottom" width="300" height="24.6" x="0" y="275.4" fill="#000" stroke-width="0"/><polygon id="right" fill="#141414" stroke-width="0" points="300 30 292.5 54.6 292.5 275.4 300 300"/><polygon id="left" fill="#1F1F1F" stroke-width="0" points="0 30 7.5 54.6 7.5 275.4 0 300"/><polygon id="left-upper-rect" fill="#1C1C1C" stroke-width="0" points="50 115 7.5 114.6 5.6 135.8 5.6 165 50 165"/><polygon id="left-lower-rect" fill="#383838" stroke-width="0" points="7.5 215.5 50 215.5 50 165 5.6 165 5.6 194.2"/><path id="slot" fill="#262626" stroke-width="0" d="M5.6,135.8l0,58.3c14.7,-1.7,26.2,-14,26.2,-29.2C31.8,149.7,20.4,137.5,5.6,135.8z"/><path id="cover" fill="#303030" stroke-width="0" d="M7.5,54.6L7.5,114.5c23.8,4.5,41.9,25.3,41.9,50.4c0,25.1,-18,46,-41.9,50.5L7.5,215.5l50,0L57.5,54.6L7.5,54.6z"/><circle cx="65" cy="234.7" r="20.6" fill="#212121" stroke-width="0"/><text id="label" x="65" y="165" fill="#ddd" stroke="none" stroke-width="0" font-family="OCRA" font-size="80" text-anchor="start">IC</text><rect id="connector0pin" width="30" height="43.4" x="35" y="286.6" fill="#8C8C8C" stroke-width="0"/><rect id="connector0terminal" width="30" height="30" x="35" y="300" fill="#8C8C8C" stroke-width="0"/><polygon fill="#8C8C8C" stroke-width="0" points="35 286.6 35 306.6 65 306.6 85 297.4 85 286.6"/><rect id="connector5pin" width="30" height="43.4" x="35" y="0" fill="#8C8C8C" stroke-width="0"/><rect id="connector5terminal" width="30" height="30" x="35" y="0" fill="#8C8C8C" stroke-width="0"/><polygon fill="#8C8C8C" stroke-width="0" points="85 43.4 85 32.6 65 23.4 35 23.4 35 43.4"/><rect id="connector2pin" width="30" height="43.4" x="235" y="286.6" fill="#8C8C8C" stroke-width="0"/><rect id="connector2terminal" width="30" height="30" x="235" y="300" fill="#8C8C8C" stroke-width="0"/><polygon fill="#8C8C8C" stroke-width="0" points="215 286.6 215 297.4 235 306.6 265 306.6 265 286.6"/><rect id="connector3pin" width="30" height="43.4" x="235" y="0" fill="#8C8C8C" stroke-width="0"/><rect id="connector3terminal" width="30" height="30" x="235" y="0" fill="#8C8C8C" stroke-width="0"/><polygon fill="#8C8C8C" stroke-width="0" points="265 43.4 265 23.4 235 23.4 215 32.6 215 43.4"/><rect id="connector1pin" width="30" height="43.4" x="135" y="286.6" fill="#8C8C8C" stroke-width="0"/><rect id="connector1terminal" width="30" height="30" x="135" y="300" fill="#8C8C8C" stroke-width="0"/><polygon fill="#8C8C8C" stroke-width="0" points="115 286.6 115 297.4 135 306.6 165 306.6 185 297.4 185 286.6"/><rect id="connector4pin" width="30" height="43.4" x="135" y="0" fill="#8C8C8C" stroke-width="0"/><rect id="connector4terminal" width="30" height="30" x="135" y="0" fill="#8C8C8C" stroke-width="0"/><polygon fill="#8C8C8C" stroke-width="0" points="185 43.4 185 32.6 165 23.4 135 23.4 115 32.6 115 43.4"/></g></svg>